<svg width="47" height="47" viewBox="0 0 47 47" fill="none" xmlns="http://www.w3.org/2000/svg">
<path fill-rule="evenodd" clip-rule="evenodd" d="M29.3972 3.98884L3.99092 29.3952C2.36519 31.0208 2.36397 33.6484 3.98543 35.2699L11.3947 42.6791C13.0133 44.2978 15.6465 44.2966 17.2694 42.6737L42.6758 17.2674C44.3015 15.6417 44.3028 13.014 42.6813 11.3926L35.272 3.98335C33.6533 2.36469 31.0202 2.36585 29.3972 3.98884ZM19.2285 44.6327C16.5239 47.3372 12.1366 47.3392 9.43569 44.6382L2.02638 37.229C-0.677413 34.5252 -0.675338 30.1434 2.03188 27.4361L27.4382 2.02979C30.1427 -0.674735 34.53 -0.676627 37.231 2.0243L44.6403 9.4336C47.3441 12.1374 47.3421 16.5192 44.6348 19.2264L19.2285 44.6327ZM16.9713 23.3314L23.3331 29.6896L29.6904 23.3314L23.3312 16.981L16.9713 23.3314ZM22.3537 32.6223L14.0423 24.3109C13.5012 23.77 13.5012 22.8929 14.0423 22.3519L22.3537 14.0405C22.8945 13.4995 23.7716 13.4995 24.3126 14.0405L32.624 22.3519C33.1651 22.8929 33.1651 23.77 32.624 24.3109L24.3126 32.6223C23.7716 33.1633 22.8945 33.1633 22.3537 32.6223ZM28.1815 12.9418C28.9465 12.9418 29.5668 12.3217 29.5668 11.5566C29.5668 10.7916 28.9465 10.1714 28.1815 10.1714C27.4165 10.1714 26.7963 10.7916 26.7963 11.5566C26.7963 12.3217 27.4165 12.9418 28.1815 12.9418ZM33.7226 7.40138C33.7226 8.16639 33.1023 8.78657 32.3373 8.78657C31.5723 8.78657 30.952 8.16639 30.952 7.40138C30.952 6.6363 31.5723 6.01612 32.3373 6.01612C33.1023 6.01612 33.7226 6.6363 33.7226 7.40138ZM35.8003 12.249C36.5653 12.249 37.1856 11.6288 37.1856 10.8638C37.1856 10.0987 36.5653 9.47852 35.8003 9.47852C35.0353 9.47852 34.4151 10.0987 34.4151 10.8638C34.4151 11.6288 35.0353 12.249 35.8003 12.249ZM40.6486 14.3272C40.6486 15.0922 40.0283 15.7123 39.2633 15.7123C38.4983 15.7123 37.8781 15.0922 37.8781 14.3272C37.8781 13.5621 38.4983 12.9419 39.2633 12.9419C40.0283 12.9419 40.6486 13.5621 40.6486 14.3272ZM35.1078 19.8684C35.8728 19.8684 36.4931 19.2482 36.4931 18.4832C36.4931 17.7181 35.8728 17.0979 35.1078 17.0979C34.3428 17.0979 33.7226 17.7181 33.7226 18.4832C33.7226 19.2482 34.3428 19.8684 35.1078 19.8684ZM33.03 15.02C33.03 15.785 32.4098 16.4052 31.6448 16.4052C30.8798 16.4052 30.2595 15.785 30.2595 15.02C30.2595 14.255 30.8798 13.6348 31.6448 13.6348C32.4098 13.6348 33.03 14.255 33.03 15.02ZM7.40328 33.7204C8.16829 33.7204 8.78847 33.1002 8.78847 32.3352C8.78847 31.5701 8.16829 30.95 7.40328 30.95C6.6382 30.95 6.01802 31.5701 6.01802 32.3352C6.01802 33.1002 6.6382 33.7204 7.40328 33.7204ZM12.9441 28.1792C12.9441 28.9442 12.3239 29.5644 11.5589 29.5644C10.7938 29.5644 10.1736 28.9442 10.1736 28.1792C10.1736 27.4141 10.7938 26.794 11.5589 26.794C12.3239 26.794 12.9441 27.4141 12.9441 28.1792ZM15.0217 33.028C15.7868 33.028 16.407 32.4078 16.407 31.6428C16.407 30.8778 15.7868 30.2576 15.0217 30.2576C14.2567 30.2576 13.6365 30.8778 13.6365 31.6428C13.6365 32.4078 14.2567 33.028 15.0217 33.028ZM19.8704 35.106C19.8704 35.871 19.2501 36.4912 18.4851 36.4912C17.7201 36.4912 17.0999 35.871 17.0999 35.106C17.0999 34.3409 17.7201 33.7207 18.4851 33.7207C19.2501 33.7207 19.8704 34.3409 19.8704 35.106ZM14.3292 40.6464C15.0943 40.6464 15.7145 40.0263 15.7145 39.2612C15.7145 38.4962 15.0943 37.876 14.3292 37.876C13.5642 37.876 12.944 38.4962 12.944 39.2612C12.944 40.0263 13.5642 40.6464 14.3292 40.6464ZM12.2515 35.7981C12.2515 36.5631 11.6312 37.1833 10.8662 37.1833C10.1012 37.1833 9.48097 36.5631 9.48097 35.7981C9.48097 35.033 10.1012 34.4129 10.8662 34.4129C11.6312 34.4129 12.2515 35.033 12.2515 35.7981Z" fill="#9074FF"/>
</svg>
