<svg width="16" height="16" viewBox="0 0 16 16" fill="none" xmlns="http://www.w3.org/2000/svg">
<path d="M5.23242 7.86426C5.24219 7.85596 5.25293 7.84863 5.26367 7.84277C5.27539 7.83643 5.28809 7.83203 5.30078 7.8291C5.3125 7.82666 5.32422 7.8252 5.33594 7.8252L5.36035 7.82715L5.37402 7.82959L5.39453 7.83643L5.4082 7.84277C5.41797 7.84814 5.42773 7.85498 5.43652 7.86279L5.44824 7.87402L5.46289 7.89209C5.50293 7.93701 5.55176 7.97412 5.60645 8C5.66211 8.02588 5.72168 8.04053 5.7832 8.04297C5.84473 8.04492 5.90527 8.03516 5.96191 8.01318L5.97852 8.00684L6.01074 7.9917L6.02246 7.98486L6.03613 7.97705C6.05566 7.96533 6.07324 7.95264 6.09082 7.93848L6.11426 7.9165C6.1582 7.87451 6.19141 7.82373 6.21387 7.76855C6.23633 7.71289 6.24707 7.65332 6.24414 7.59375C6.24316 7.55713 6.23633 7.52051 6.22559 7.48535L6.21094 7.44629L6.2002 7.42236C6.17383 7.36865 6.13574 7.3208 6.08887 7.28223C5.96387 7.16553 5.81348 7.08105 5.65039 7.0332C5.58496 7.01367 5.51758 7 5.44922 6.99316C5.41113 6.98926 5.37305 6.9873 5.33398 6.9873C5.05273 6.9873 4.78125 7.09277 4.57812 7.28223C4.53125 7.3208 4.49414 7.36865 4.4668 7.42236C4.44043 7.47607 4.42578 7.53467 4.42285 7.59375C4.4209 7.65332 4.43066 7.71289 4.45312 7.76855C4.47559 7.82373 4.50977 7.87451 4.55273 7.9165C4.59668 7.9585 4.64844 7.9917 4.70508 8.01318C4.73242 8.02393 4.76172 8.03174 4.79102 8.03662C4.81348 8.04053 4.83594 8.04248 4.8584 8.04297H4.88477C4.94531 8.04053 5.00586 8.02588 5.06055 8C5.08789 7.9873 5.11426 7.97168 5.1377 7.9541C5.16211 7.93604 5.18457 7.91504 5.20898 7.89209L5.2168 7.88232L5.23242 7.86426Z" fill="#223344"/>
<path d="M6.79883 10.4814C6.63672 10.3867 6.48633 10.2725 6.35156 10.1406C6.3125 10.0967 6.2832 10.0459 6.26562 9.9917C6.25684 9.96436 6.25098 9.93604 6.24805 9.90723C6.24512 9.88574 6.24414 9.86426 6.24512 9.84229C6.24902 9.7334 6.2959 9.63037 6.375 9.55322C6.4541 9.47607 6.55957 9.43115 6.67188 9.42725C6.7832 9.42285 6.89258 9.45996 6.97754 9.53076C7.25 9.79541 7.62012 9.94385 8.00488 9.94385C8.10645 9.94385 8.20801 9.93359 8.30566 9.91309C8.41797 9.89014 8.52734 9.854 8.63086 9.80566C8.77832 9.7373 8.91406 9.64502 9.03125 9.53076L9.06738 9.49365L9.10742 9.46191L9.14746 9.43701L9.17578 9.42236L9.22461 9.40283C9.26562 9.38916 9.30859 9.38135 9.35156 9.37988C9.41309 9.37744 9.47363 9.3877 9.53125 9.40918C9.55762 9.41943 9.58301 9.43213 9.60742 9.44678C9.63477 9.46387 9.66016 9.48389 9.68359 9.50635L9.70996 9.53418L9.7334 9.56348L9.74512 9.58203L9.76074 9.60742C9.76953 9.62256 9.77637 9.63818 9.7832 9.6543C9.79395 9.68262 9.80273 9.71191 9.80762 9.7417C9.8125 9.77051 9.81445 9.79932 9.81348 9.82861C9.8125 9.85352 9.80957 9.87842 9.80371 9.90283L9.78906 9.9502L9.76855 10.0005C9.74219 10.0542 9.7041 10.1016 9.6582 10.1406C9.21777 10.5664 8.62305 10.8052 8.00293 10.8052C7.57422 10.8052 7.1582 10.6919 6.79883 10.4814Z" fill="#223344"/>
<path d="M10.5381 7.89209C10.5566 7.87158 10.5752 7.85449 10.5977 7.84277C10.6084 7.83691 10.6201 7.83252 10.6318 7.82959C10.6436 7.82666 10.6562 7.8252 10.6689 7.8252L10.7012 7.82812C10.7148 7.83105 10.7285 7.83594 10.7412 7.84277C10.7637 7.85449 10.7822 7.87158 10.7959 7.89209C10.8359 7.93701 10.8848 7.97412 10.9404 8L10.9912 8.02051C11.0098 8.02686 11.0293 8.03174 11.0488 8.03516L11.0869 8.04102L11.1162 8.04297C11.1777 8.04492 11.2383 8.03516 11.2959 8.01318C11.3525 7.9917 11.4043 7.9585 11.4482 7.9165C11.4668 7.89795 11.4844 7.87793 11.499 7.85645L11.5166 7.83008C11.5283 7.81055 11.5391 7.79004 11.5479 7.76855C11.5693 7.71289 11.5801 7.65332 11.5781 7.59375C11.5752 7.53467 11.5605 7.47607 11.5332 7.42236L11.5098 7.38086L11.4932 7.35645C11.4727 7.3291 11.4492 7.3042 11.4229 7.28223L11.3594 7.22803C11.2568 7.14648 11.1406 7.08398 11.0166 7.04346C10.9053 7.00635 10.7871 6.9873 10.667 6.9873C10.5234 6.9873 10.3828 7.01465 10.2529 7.06641C10.1279 7.11621 10.0117 7.18896 9.91113 7.28223C9.86523 7.3208 9.82715 7.36865 9.80078 7.42236L9.79199 7.44141C9.78027 7.46875 9.77148 7.49805 9.76562 7.52783C9.76074 7.5498 9.75781 7.57178 9.75684 7.59375C9.75391 7.65332 9.76465 7.71289 9.78711 7.76855C9.80078 7.80176 9.81738 7.83301 9.83887 7.86182C9.85352 7.88135 9.86914 7.8999 9.88672 7.9165C9.92969 7.9585 9.98145 7.9917 10.0381 8.01318C10.0957 8.03516 10.1562 8.04492 10.2178 8.04297C10.249 8.0415 10.2803 8.03711 10.3105 8.02979C10.3398 8.02246 10.3672 8.0127 10.3945 8C10.4287 7.98389 10.46 7.96387 10.4883 7.93994C10.5059 7.92529 10.5225 7.90918 10.5381 7.89209Z" fill="#223344"/>
<path fill-rule="evenodd" clip-rule="evenodd" d="M16 8C16 12.4185 12.418 16 8 16C3.58203 16 0 12.4185 0 8C0 3.58154 3.58203 0 8 0C12.418 0 16 3.58154 16 8ZM6.04004 2.96191C6.0625 2.95361 6.08789 2.95068 6.1123 2.95361L6.13867 2.95947C6.15332 2.96387 6.16699 2.97021 6.17969 2.979C6.2002 2.99268 6.21582 3.01074 6.22754 3.03174L6.23535 3.04932L6.24121 3.07373L6.24414 3.10059C6.24512 3.28564 6.28906 3.4668 6.37109 3.63037C6.43164 3.75098 6.5127 3.86182 6.61133 3.9585C6.8457 4.18604 7.16211 4.31445 7.49316 4.31543H8.5293C8.69824 4.31494 8.86328 4.28076 9.0166 4.21777C9.09082 4.18701 9.16309 4.14893 9.23047 4.104C9.27246 4.07666 9.3125 4.04639 9.35059 4.01367L9.41113 3.9585C9.4541 3.9165 9.49316 3.87207 9.52832 3.8252C9.57812 3.76074 9.62109 3.69141 9.65723 3.61865C9.71387 3.50195 9.75098 3.37695 9.76758 3.24854C9.77441 3.19971 9.77734 3.15039 9.77734 3.10059L9.78027 3.07373C9.7832 3.05908 9.78809 3.04492 9.79492 3.03174L9.80859 3.01074C9.81836 2.99854 9.83008 2.98779 9.84277 2.979C9.8623 2.96533 9.88574 2.95654 9.91016 2.95361C9.93457 2.95068 9.95898 2.95361 9.98242 2.96191C11.1348 3.4082 12.0918 4.23096 12.6875 5.28955C13.2842 6.34766 13.4824 7.57471 13.249 8.76025C13.0156 9.94531 12.3652 11.0146 11.4092 11.7837C10.4531 12.5522 9.25195 12.9731 8.01074 12.9731C7.89062 12.9731 7.77148 12.9692 7.65234 12.9614C7.54785 12.9546 7.44434 12.9448 7.3418 12.9321C6.97363 12.8867 6.61328 12.8042 6.26562 12.687C5.66797 12.4858 5.1084 12.1812 4.61328 11.7837C3.65723 11.0146 3.00684 9.94531 2.77344 8.76025C2.71973 8.48535 2.68945 8.20801 2.68066 7.93066C2.67383 7.69678 2.68262 7.46338 2.70801 7.23145C2.74023 6.93896 2.79785 6.64941 2.88086 6.36621C2.93164 6.19043 2.99219 6.01709 3.0625 5.84668C3.1416 5.65674 3.23242 5.4707 3.33398 5.28955C3.93066 4.23096 4.8877 3.4082 6.04004 2.96191Z" fill="#223344"/>
</svg>
