<svg width="58" height="96" viewBox="0 0 58 96" fill="none" xmlns="http://www.w3.org/2000/svg">
<path d="M48.6 29.1859C47.28 23.6382 43.44 18.9347 38.28 16.402V9.52764C38.28 6.99497 37.32 4.58291 35.52 2.77387C33.72 0.964824 31.32 0 28.8 0C23.52 0 19.32 4.34171 19.32 9.52764V16.402C14.16 18.9347 10.32 23.5176 9 29.1859C3.96 30.0301 0 34.4925 0 39.9196C0 43.6583 1.92 47.0352 4.8 48.9648V80.3216C4.8 89.005 11.76 96 20.4 96H37.2C45.84 96 52.8 89.005 52.8 80.3216V48.9648C55.68 47.0352 57.6 43.6583 57.6 39.9196C57.6 34.4925 53.76 30.0301 48.6 29.1859ZM26.52 9.64824C26.52 8.32161 27.6 7.35678 28.8 7.35678C29.4 7.35678 30 7.59799 30.48 8.0804C30.96 8.56281 31.2 9.04522 31.2 9.76884V14.7136C30.84 14.7136 30.48 14.7136 30.12 14.7136H27.72C27.36 14.7136 26.88 14.7136 26.52 14.7136L26.52 9.64824ZM24 22.3116C25.2 21.9497 26.4 21.7085 27.6 21.7085H30C31.2 21.7085 32.4 21.9497 33.6 22.3116C36.96 23.397 39.6 25.809 40.92 28.9447H16.56C18 25.9296 20.52 23.397 24 22.3116ZM10.8 36.1809H46.8C48.84 36.1809 50.4 37.7487 50.4 39.799C50.4 41.8492 48.84 43.4171 46.8 43.4171H10.8C8.76 43.4171 7.2 41.8492 7.2 39.799C7.2 37.7487 8.76 36.1809 10.8 36.1809ZM37.2 88.7638H20.4C15.72 88.7638 12 85.0251 12 80.3216V78.8744H24.36V71.6382H12V65.608H24.36V58.3718H12V50.7739H45.6V80.3216C45.6 84.9045 41.88 88.7638 37.2 88.7638Z" fill="#FF8162"/>
</svg>
