<svg width="44" height="48" viewBox="0 0 44 48" fill="none" xmlns="http://www.w3.org/2000/svg">
<path d="M17.1512 19.6128C16.5544 19.1652 15.7837 18.9415 14.8387 18.9415C13.8939 18.9415 13.1479 19.1652 12.6008 19.6128L11.8549 20.2842C11.5565 20.5826 11.2084 20.6323 10.8105 20.4334C10.4624 20.2344 10.3132 19.9112 10.3629 19.4636C10.5122 18.5685 11.0343 17.8225 11.9294 17.2257C12.8744 16.629 13.8441 16.3306 14.8387 16.3306C15.8334 16.3306 16.7783 16.629 17.6735 17.2257C18.6183 17.8225 19.1654 18.5685 19.3146 19.4636C19.3643 19.9112 19.1903 20.2344 18.7924 20.4334C18.4443 20.6323 18.121 20.5826 17.8226 20.2842L17.1512 19.6128Z" fill="#4BCFC7"/>
<path d="M33.1896 20.3588C32.7917 20.6074 32.4436 20.5826 32.1453 20.2842L31.4739 19.6128C30.9268 19.1155 30.156 18.8917 29.1614 18.9415C28.2164 18.9415 27.4705 19.1652 26.9235 19.6128L26.1775 20.2842C25.8792 20.5826 25.531 20.6323 25.1332 20.4334C24.785 20.2344 24.6359 19.9112 24.6855 19.4636C24.8347 18.5685 25.3569 17.8225 26.2521 17.2257C27.197 16.629 28.1667 16.3306 29.1614 16.3306C30.156 16.3306 31.1008 16.629 31.996 17.2257C32.9409 17.8225 33.4879 18.5685 33.6372 19.4636C33.6869 19.9112 33.5377 20.2096 33.1896 20.3588Z" fill="#4BCFC7"/>
<path fill-rule="evenodd" clip-rule="evenodd" d="M0 22C0 31.3279 5.8053 39.3 14 42.5002V45H12.5C11.6716 45 11 45.6716 11 46.5C11 47.3284 11.6716 48 12.5 48H31.5C32.3284 48 33 47.3284 33 46.5C33 45.6716 32.3284 45 31.5 45H30V42.5002C38.1947 39.3 44 31.3279 44 22C44 9.84973 34.1503 0 22 0C9.84973 0 0 9.84973 0 22ZM12.4517 37.8145L14 38.6371V33.9004C12.7441 33.2318 12 32.4007 12 31.5C12 29.2908 16.4772 24.5 22 24.5C27.5228 24.5 32 29.2908 32 31.5C32 32.4007 31.2559 33.2318 30 33.9004V38.6371L31.5483 37.8145C34.2836 36.1734 36.4469 33.9603 38.0383 31.1754C39.6794 28.3407 40.5 25.2823 40.5 22C40.5 18.668 39.6545 15.5847 37.9637 12.75C36.3226 9.91534 34.0847 7.67743 31.25 6.03632C28.4153 4.34546 25.332 3.5 22 3.5C18.668 3.5 15.5847 4.34546 12.75 6.03632C9.91528 7.67743 7.65259 9.91534 5.96167 12.75C4.32056 15.5847 3.5 18.668 3.5 22C3.5 25.2823 4.29565 28.3407 5.88708 31.1754C7.5282 33.9603 9.71643 36.1734 12.4517 37.8145ZM27.5 45.0001V29.3517C24.5 27.0162 19.5 27.0162 16.5 29.3517V45.0001H19V32C19 31.4477 19.4478 31 20 31C20.5522 31 21 31.4477 21 32V45.0001H23V32C23 31.4477 23.4478 31 24 31C24.5522 31 25 31.4477 25 32V45.0001H27.5Z" fill="#4BCFC7"/>
</svg>
