<svg width="44" height="37" viewBox="0 0 44 37" fill="none" xmlns="http://www.w3.org/2000/svg">
<path d="M0.333344 0.333252V21.9978C0.333344 29.9733 6.79922 36.4424 14.778 36.4424V36.444H29.222V36.4424C37.2008 36.4424 43.6667 29.9733 43.6667 21.9978V0.333252H0.333344ZM3.94463 21.9978V18.8593C10.1722 20.4659 14.778 26.1047 14.778 32.8311C8.79309 32.8311 3.94463 27.9788 3.94463 21.9978ZM40.0554 21.9978C40.0554 27.9788 35.2069 32.8311 29.222 32.8311C29.222 26.1025 33.8316 20.4675 40.0554 18.861V21.9978ZM25.6113 32.8333L18.3887 32.8311C18.3887 24.0978 12.1861 16.8124 3.94463 15.137V11.1666H11.1667V7.55529H3.94463V3.944H40.0554V7.55529H32.8333V11.1666H40.0554V15.1392C31.8161 16.814 25.6113 24.0978 25.6113 32.8333Z" fill="#FBD200"/>
</svg>
