<svg width="54" height="54" viewBox="0 0 54 54" fill="none" xmlns="http://www.w3.org/2000/svg">
<path fill-rule="evenodd" clip-rule="evenodd" d="M13.0345 13.9655C13.0345 6.28232 19.3168 0 27 0C34.6832 0 40.9655 6.28232 40.9655 13.9655V20.4828C40.9655 24.1473 39.5396 27.6384 37.1424 30.1746L46.0313 33.9572C50.9789 35.8506 54 40.7788 54 45.9V54H49.9655V45.6827C49.9655 42.1411 47.7958 38.794 44.4605 37.42L44.4593 37.4195L40.9655 35.9903V41.4833C43.42 42.2766 45.3103 44.6302 45.3103 47.4207C45.3103 50.9763 42.5039 53.7827 38.9483 53.7827C35.3927 53.7827 32.5862 50.9763 32.5862 47.4207C32.5862 44.6302 34.4766 42.2766 36.931 41.4833V36.6516L27 52.6629L15.9844 34.9031L9.54072 37.6368C6.19388 39.0149 4.03448 42.1525 4.03448 45.9V54H0V45.9C0 40.7725 3.0275 35.8444 8.19242 33.9545L17.0248 30.196C14.4649 27.6544 13.0345 24.1522 13.0345 20.4828V13.9655ZM19.6631 33.2733L27.0062 45.0222L34.3299 33.4874L33.2913 33.0152C31.3653 33.8316 29.2019 34.4483 27 34.4483C24.8006 34.4483 22.6275 33.8335 20.6659 32.8175L19.6631 33.2733ZM36.6207 47.6379C36.6207 46.42 37.5153 45.492 38.5856 45.3103H39.3109C40.3812 45.492 41.2759 46.42 41.2759 47.6379C41.2759 48.8617 40.172 49.9655 38.9483 49.9655C37.7245 49.9655 36.6207 48.8617 36.6207 47.6379ZM17.069 18.9403C22.2798 18.3569 26.9264 16.1601 30.5103 12.8353C32.4405 14.4317 34.5425 15.571 36.931 16.381V20.4828C36.931 26.0393 32.3635 30.4138 27 30.4138C21.4314 30.4138 17.069 26.0514 17.069 20.4828V18.9403ZM27 4.03452C21.4314 4.03452 17.069 8.39693 17.069 13.9655V14.8746C23.1864 13.9978 28.5459 10.3062 31.5999 5.18797C30.1963 4.4539 28.6656 4.03452 27 4.03452ZM34.817 7.90834C34.3926 8.61696 33.9035 9.31273 33.3484 9.96248C34.3986 10.7742 35.525 11.4277 36.7291 11.9248C36.4069 10.3761 35.766 9.02587 34.817 7.90834Z" fill="#79DF49"/>
</svg>
