<svg width="100" height="100" viewBox="0 0 100 100" fill="none" xmlns="http://www.w3.org/2000/svg">
<path d="M17.6864 54.0164C17.6864 55.8121 18.8049 57.3443 20.3786 57.9727C20.2063 56.6772 20.1086 55.3588 20.1086 54.0154C20.1086 52.6739 20.2063 51.3545 20.3786 50.06C18.8049 50.6884 17.6864 52.2215 17.6864 54.0164Z" fill="#DEE0E3"/>
<path d="M46.4753 66.0816C46.4753 68.0248 48.0573 69.6068 50.0005 69.6068C51.9445 69.6068 53.5274 68.0248 53.5274 66.0816C53.5274 64.1385 51.9445 62.5565 50.0005 62.5565C48.0573 62.5565 46.4753 64.1385 46.4753 66.0816Z" fill="#DEE0E3"/>
<path fill-rule="evenodd" clip-rule="evenodd" d="M23.7941 54.0164C23.7941 68.4661 35.5498 80.2227 50.0005 80.2227C64.4521 80.2227 76.2077 68.4661 76.2077 54.0164C76.2077 39.5666 64.4521 27.81 50.0005 27.81C35.5507 27.81 23.7941 39.5666 23.7941 54.0164ZM56.8573 63.8565L58.2071 63.5516C59.1966 63.3304 60.1862 63.9505 60.4109 64.9437C60.6349 65.937 60.0111 66.9228 59.0188 67.1476L57.0508 67.5917C56.3542 70.846 53.4593 73.2931 50.0005 73.2931C46.5426 73.2931 43.6486 70.8451 42.952 67.5917L40.984 67.1476C39.9917 66.9219 39.3679 65.936 39.5918 64.9437C39.8166 63.9505 40.8062 63.3295 41.7957 63.5516L43.1455 63.8565C44.0853 60.9662 46.8015 58.871 50.0005 58.871C53.1994 58.871 55.9165 60.9662 56.8573 63.8565ZM44.2631 52.2842C43.6532 52.2842 43.0571 51.982 42.706 51.4282C41.7109 49.8601 40.0267 48.924 38.1996 48.924C36.3744 48.924 34.6902 49.861 33.6942 51.4292C33.1469 52.2879 32.0081 52.5403 31.1503 51.9967C30.2916 51.4503 30.0373 50.3115 30.5827 49.4528C32.2605 46.814 35.1075 45.2385 38.1996 45.2385C41.2954 45.2385 44.1424 46.814 45.8166 49.4538C46.362 50.3134 46.1077 51.4513 45.2481 51.9967C44.9422 52.1911 44.6003 52.2842 44.2631 52.2842ZM54.1835 49.4528C55.8613 46.814 58.7083 45.2385 61.8004 45.2385C64.8952 45.2385 67.7422 46.814 69.4164 49.4538C69.9618 50.3134 69.7075 51.4513 68.8479 51.9967C68.542 52.1911 68.2002 52.2842 67.8629 52.2842C67.253 52.2842 66.6569 51.982 66.3058 51.4282C65.3108 49.8601 63.6256 48.924 61.8004 48.924C59.9752 48.924 58.2909 49.861 57.2949 51.4292C56.7476 52.2879 55.6079 52.5403 54.751 51.9967C53.8923 51.4503 53.638 50.3115 54.1835 49.4528Z" fill="#DEE0E3"/>
<path d="M79.8932 54.0154C79.8932 55.3579 79.7955 56.6763 79.6232 57.9727C81.1969 57.3443 82.3155 55.8112 82.3155 54.0154C82.3155 52.2197 81.1969 50.6875 79.6232 50.0591C79.7955 51.3545 79.8932 52.6739 79.8932 54.0154Z" fill="#DEE0E3"/>
<path fill-rule="evenodd" clip-rule="evenodd" d="M50 100C77.6142 100 100 77.6142 100 50C100 22.3858 77.6142 0 50 0C22.3858 0 0 22.3858 0 50C0 77.6142 22.3858 100 50 100ZM50.2916 24.131C63.9075 24.2627 75.3693 33.5409 78.8226 46.1046C82.8452 46.4943 86.0009 49.8932 86 54.0154C86 58.1395 82.8443 61.5384 78.8217 61.9281C75.3435 74.5812 63.7435 83.9072 49.9995 83.9072C36.2556 83.9072 24.6565 74.5812 21.1783 61.9281C17.1557 61.5384 14 58.1395 14 54.0164C14 49.8923 17.1557 46.4943 21.1783 46.1037C24.2511 34.922 33.6665 26.3413 45.2997 24.4958C43.4302 21.9188 43.0525 18.7585 43.7011 16.1593C44.6879 12.2048 47.8942 9.6499 51.869 9.6499C56.3607 9.6499 58.7848 12.9898 58.7848 16.1326C58.7848 17.8537 58.032 19.444 56.7734 20.3875C55.5296 21.319 53.8849 21.553 52.1399 21.0416C51.1642 20.756 50.603 19.7333 50.8887 18.7557C51.1743 17.7791 52.1961 17.2171 53.1746 17.5045C53.7956 17.686 54.2636 17.6621 54.563 17.4382C54.8846 17.1977 55.0993 16.6725 55.0993 16.1326C55.0993 14.7856 54.0886 13.3354 51.869 13.3354C48.4691 13.3354 47.4944 16.1805 47.2769 17.0521C46.6983 19.3721 47.428 22.4034 50.2916 24.131Z" fill="#DEE0E3"/>
</svg>
