<svg width="144" height="40" viewBox="0 0 144 40" fill="none" xmlns="http://www.w3.org/2000/svg">
<path fill-rule="evenodd" clip-rule="evenodd" d="M10.0601 5.56665C10.0791 5.55945 10.0986 5.55493 10.1187 5.5531C10.1284 5.55212 10.1382 5.55188 10.1479 5.55212L10.168 5.55371C10.189 5.5564 10.209 5.56177 10.2285 5.56995C10.2427 5.57605 10.2563 5.58362 10.2695 5.59253C10.2998 5.61353 10.3242 5.6416 10.3413 5.67432C10.3579 5.70691 10.3667 5.74316 10.3667 5.78003C10.3682 6.27625 10.5664 6.75171 10.9175 7.10266C11.0947 7.27991 11.3037 7.41797 11.5308 7.5116C11.7534 7.60339 11.9941 7.65247 12.2397 7.65332H13.7935C14.2896 7.65149 14.7651 7.45361 15.1162 7.10266C15.4668 6.75171 15.665 6.27625 15.6665 5.78003C15.6665 5.76611 15.668 5.75232 15.6699 5.73877C15.6743 5.71631 15.6816 5.69458 15.6919 5.67432L15.7017 5.65747L15.7139 5.64014L15.7212 5.63086C15.729 5.62207 15.7373 5.61389 15.7461 5.60645L15.7637 5.59253C15.7939 5.57153 15.8291 5.55835 15.8652 5.55371C15.9019 5.54919 15.939 5.55371 15.9731 5.56665C17.7021 6.25415 19.1372 7.52295 20.0317 9.15442C20.9258 10.7859 21.2236 12.6781 20.8735 14.5054C20.5234 16.3328 19.5479 17.981 18.1138 19.1663C16.6797 20.3517 14.877 21.0002 13.0166 21.0002C11.1562 21.0002 9.35352 20.3517 7.91943 19.1663C6.48584 17.981 5.50977 16.3328 5.15967 14.5054C4.80957 12.6781 5.10742 10.7859 6.00146 9.15442C6.896 7.52295 8.33105 6.25415 10.0601 5.56665ZM8.88428 13.0975L8.89551 13.0911L8.9082 13.0846L8.92432 13.078L8.9375 13.0735L8.95947 13.0681L8.97119 13.066L8.98584 13.0645L9.00342 13.0637C9.02832 13.0637 9.05322 13.0679 9.07666 13.0759C9.08887 13.08 9.1001 13.085 9.11133 13.0911C9.12793 13.1001 9.14355 13.1112 9.15723 13.1239C9.16455 13.1306 9.17139 13.1378 9.17773 13.1455L9.19336 13.1667C9.25342 13.2366 9.32666 13.2932 9.40967 13.3333C9.46826 13.3617 9.53076 13.3812 9.59473 13.3915C9.62061 13.3958 9.64697 13.3983 9.67383 13.3993C9.70752 13.4006 9.74121 13.3994 9.77441 13.3956C9.83203 13.3892 9.88867 13.3751 9.94287 13.3539C10.0283 13.3203 10.1064 13.2695 10.1714 13.2046C10.2363 13.1396 10.2871 13.0619 10.3203 12.9763C10.3345 12.9407 10.3452 12.9041 10.353 12.8668C10.3638 12.8146 10.3682 12.761 10.3657 12.7074C10.3623 12.6156 10.3398 12.5255 10.2998 12.4429C10.2729 12.3877 10.2393 12.3365 10.1987 12.2909C10.1787 12.2681 10.1567 12.2467 10.1333 12.2268C9.82812 11.9351 9.42236 11.7722 9 11.7722C8.57764 11.7722 8.17188 11.9351 7.8667 12.2268C7.79688 12.2865 7.74023 12.3601 7.7002 12.4429C7.66016 12.5255 7.6377 12.6156 7.63428 12.7074C7.6333 12.7355 7.63379 12.7635 7.63623 12.7915L7.64355 12.8464L7.65381 12.8958L7.6582 12.9113C7.66064 12.9225 7.66406 12.9337 7.66797 12.9448L7.67969 12.9763C7.69043 13.0039 7.70312 13.0308 7.71729 13.0565C7.72852 13.0767 7.74072 13.0962 7.75391 13.1151C7.77637 13.147 7.80127 13.1769 7.8291 13.2046C7.89404 13.2695 7.97168 13.3203 8.05713 13.3539C8.14258 13.3875 8.23438 13.4028 8.32617 13.3993C8.41797 13.3958 8.50781 13.3733 8.59082 13.3333C8.67334 13.2932 8.74707 13.2366 8.80664 13.1667H8.81348L8.82129 13.1555L8.82861 13.1459L8.84131 13.1318L8.85547 13.1187C8.86426 13.111 8.87402 13.1039 8.88428 13.0975ZM10.52 16.6332C11.1792 17.2898 12.0723 17.6584 13.0029 17.6584C13.9341 17.6584 14.8267 17.2898 15.4863 16.6332C15.5562 16.5735 15.6128 16.4999 15.6528 16.4172C15.6929 16.3345 15.7153 16.2444 15.7188 16.1526C15.7207 16.1027 15.7173 16.0527 15.708 16.0038C15.7002 15.9629 15.6885 15.9226 15.6733 15.8835C15.6655 15.863 15.6562 15.8428 15.6465 15.8232L15.6372 15.8059L15.624 15.7837L15.605 15.7532C15.5908 15.7321 15.5752 15.7118 15.5586 15.6924C15.5474 15.6797 15.5361 15.6672 15.5244 15.6554C15.4956 15.6267 15.4644 15.6007 15.4312 15.5779C15.3892 15.549 15.3438 15.5248 15.2959 15.5061C15.2104 15.4727 15.1187 15.457 15.0269 15.4607C14.9351 15.4641 14.8452 15.4867 14.7627 15.5266C14.7393 15.5378 14.7168 15.5504 14.6953 15.5642C14.6396 15.5996 14.5894 15.6431 14.5464 15.6931C14.1377 16.1011 13.584 16.3302 13.0063 16.3302C12.4292 16.3302 11.875 16.1011 11.4663 15.6931C11.3975 15.6342 11.3179 15.5903 11.2324 15.5636C11.1943 15.5516 11.1553 15.5431 11.1152 15.5381C11.0796 15.5336 11.0435 15.532 11.0068 15.5334C10.8394 15.5398 10.6802 15.6094 10.5615 15.7281C10.4429 15.8469 10.373 16.0061 10.3667 16.1738C10.3604 16.3416 10.417 16.5056 10.5264 16.6332H10.52ZM16.8135 13.1667C16.8267 13.1462 16.8433 13.1282 16.8623 13.113C16.8726 13.1047 16.8838 13.0974 16.8955 13.0911C16.9287 13.0731 16.9658 13.0637 17.0034 13.0637C17.041 13.0637 17.0781 13.0731 17.1113 13.0911C17.1328 13.1027 17.1519 13.1176 17.1685 13.135C17.1777 13.1448 17.186 13.1554 17.1934 13.1667C17.2251 13.2036 17.2603 13.2368 17.2988 13.2659C17.3335 13.2917 17.3706 13.3143 17.4097 13.3333C17.4922 13.3733 17.582 13.3958 17.6738 13.3993C17.7656 13.4028 17.8574 13.3875 17.9429 13.3539C17.9717 13.3425 17.9995 13.3292 18.0264 13.3141C18.0586 13.296 18.0894 13.2754 18.1182 13.2523C18.1367 13.2374 18.1543 13.2216 18.1714 13.2046C18.1978 13.178 18.2222 13.1493 18.2437 13.1188C18.2749 13.0747 18.3008 13.0269 18.3203 12.9763C18.354 12.8907 18.3696 12.7992 18.3657 12.7074C18.3623 12.6156 18.3398 12.5255 18.2998 12.4429C18.2598 12.3601 18.2031 12.2865 18.1333 12.2268C17.8281 11.9351 17.4224 11.7722 17 11.7722C16.5776 11.7722 16.1719 11.9351 15.8667 12.2268C15.7969 12.2865 15.7402 12.3601 15.7002 12.4429C15.6602 12.5255 15.6377 12.6156 15.6343 12.7074C15.6309 12.7992 15.646 12.8907 15.6797 12.9763C15.6968 13.0197 15.7183 13.061 15.7437 13.0997C15.7686 13.1373 15.7969 13.1725 15.8291 13.2046C15.8594 13.2349 15.8926 13.2621 15.9277 13.2859C15.9683 13.3131 16.0117 13.3359 16.0571 13.3539C16.1426 13.3875 16.2344 13.4028 16.3262 13.3993C16.418 13.3958 16.5078 13.3733 16.5908 13.3333C16.6733 13.2932 16.7471 13.2366 16.8066 13.1667H16.8135Z" fill="white"/>
<path fill-rule="evenodd" clip-rule="evenodd" d="M13 0C5.82031 0 0 5.82031 0 13V26C0 33.1797 5.82031 39 13 39C20.1797 39 26 33.1797 26 26V13C26 5.82031 20.1797 0 13 0ZM21.4756 34.4756C19.2271 36.7241 16.1797 37.9912 13 38C9.82031 37.9912 6.77295 36.7241 4.52441 34.4756C2.27588 32.2271 1.00879 29.1799 1 26V13C1 9.81738 2.26416 6.76514 4.51465 4.51465C6.76514 2.26428 9.81738 1 13 1C16.1826 1 19.2349 2.26428 21.4854 4.51465C23.7358 6.76514 25 9.81738 25 13V26C24.9912 29.1799 23.7241 32.2271 21.4756 34.4756Z" fill="white"/>
<path d="M93.147 35.118C89.3916 35.118 87.3105 32.4867 87.3105 32.4867L89.0806 30.286C89.0806 30.286 90.8267 32.2954 93.1948 32.2954C94.4868 32.2954 95.6348 31.6017 95.6348 30.286C95.6348 29.0551 94.1899 28.3909 92.5293 27.6274C90.2847 26.5957 87.6455 25.3826 87.6455 22.3442C87.6455 19.5934 90.0376 17.5601 93.3145 17.5601C95.3003 17.5601 98.3618 18.4929 98.3618 20.9089V22.4878H95.5391V21.7223C95.5391 20.9329 94.415 20.4066 93.2905 20.4066C91.8555 20.4066 90.8027 21.1482 90.8027 22.2246C90.8027 23.4369 92.2041 24.0408 93.833 24.7427C96.0938 25.7166 98.7925 26.8793 98.7925 30.1185C98.7925 32.8217 96.7114 35.118 93.147 35.118Z" fill="white"/>
<path fill-rule="evenodd" clip-rule="evenodd" d="M35.5547 33.2043C35.5547 34.3525 36.0571 34.8311 37.1816 34.8311H41.4155C44.5732 34.8311 47.2764 33.3 47.2764 29.9033C47.2764 28.1809 46.3911 26.4586 44.5493 25.9084V25.8606C45.5776 25.3344 46.6064 24.1144 46.6064 22.2246C46.6064 19.4259 44.4058 17.8472 41.3438 17.8472H34V20.5023H35.5547V33.2043ZM38.6885 24.7842V20.5023H41.3198C42.707 20.5023 43.4248 21.3875 43.4248 22.6074C43.4248 23.8274 42.6831 24.7842 41.3677 24.7842H38.6885ZM38.6885 31.6495V27.272H41.6548C43.1616 27.272 44.0469 28.3005 44.0469 29.7119C44.0469 31.1472 43.1855 32.1758 41.6548 32.1758H39.2148C38.8799 32.1758 38.6885 31.9844 38.6885 31.6495Z" fill="white"/>
<path fill-rule="evenodd" clip-rule="evenodd" d="M48.3267 31.3146C48.3267 33.7545 50.312 35.118 52.4888 35.118C55.2397 35.118 56.1724 32.9652 56.1724 32.9652H56.2202C56.2202 32.9652 56.1963 33.1804 56.1963 33.4915C56.1963 34.2091 56.627 34.8311 57.7515 34.8311H60.478V32.2715H59.5215C59.1865 32.2715 58.9951 32.0801 58.9951 31.7452V27.2002C58.9951 24.4733 57.7993 22.3442 53.7324 22.3442C52.4648 22.3442 49.2593 22.5835 49.2593 24.856V26.1477H52.082V25.5018C52.082 24.832 53.1587 24.6885 53.7085 24.6885C55.2637 24.6885 55.957 25.3344 55.957 27.0806V27.1763H55.5747C53.5889 27.1763 48.3267 27.4873 48.3267 31.3146ZM51.3882 31.1711C51.3882 29.4727 53.8999 29.2574 55.479 29.2574H56.0049V29.5444C56.0049 31.0276 54.8569 32.7499 53.23 32.7499C51.9863 32.7499 51.3882 31.9844 51.3882 31.1711Z" fill="white"/>
<path fill-rule="evenodd" clip-rule="evenodd" d="M64.9653 34.8311H62.0947V20.9568C62.0947 20.6774 61.9785 20.5139 61.769 20.4553C61.7427 20.4479 61.7144 20.4421 61.6851 20.4381L61.6562 20.4347L61.6187 20.4318L61.5684 20.4305H60.6113V17.8472H63.5059C64.6304 17.8472 65.1328 18.3495 65.1328 19.4738V23.014C65.1328 23.6121 65.085 24.0426 65.085 24.0426H65.1328C65.1328 24.0426 66.209 22.3442 68.7925 22.3442C72.0938 22.3442 74.1987 24.9517 74.1987 28.7312C74.1987 32.6063 71.8306 35.118 68.6011 35.118C66.0654 35.118 64.9653 33.3958 64.9653 33.3958H64.9175C64.9175 33.3958 64.9653 33.7306 64.9653 34.2091V34.8311ZM68.0986 24.9517C66.52 24.9517 65.0371 26.0999 65.0371 28.8029C65.0371 30.6926 66.0415 32.5585 68.0747 32.5585C69.7256 32.5585 71.1367 31.1951 71.1367 28.7791C71.1367 26.4586 69.8931 24.9517 68.0986 24.9517Z" fill="white"/>
<path d="M75.2368 36.4576L74.0645 38.6105C74.0645 38.6105 75.2368 39.8544 77.1504 39.8544C78.9683 39.8544 80.6909 38.8737 81.5518 36.673L85.9292 25.6454C86.0728 25.2865 86.2642 25.2147 86.623 25.2147H86.9819V22.6313H84.9248C84.0874 22.6313 83.585 22.9423 83.2983 23.7795L81.2168 29.8794C81.002 30.5013 80.8105 31.506 80.8105 31.506H80.7627C80.7627 31.506 80.5713 30.5013 80.332 29.8794L77.9399 23.7795C77.6289 22.9423 77.1982 22.6313 76.3369 22.6313H74.3276V25.2147H74.6865C75.0215 25.2147 75.189 25.2865 75.3325 25.6454L79.3989 34.8071L78.9922 35.74C78.562 36.7925 77.8203 37.2948 76.9829 37.2948C75.9785 37.2948 75.2368 36.4576 75.2368 36.4576Z" fill="white"/>
<path d="M100.989 30.3578C100.989 34.4482 104.362 34.9506 106.061 34.9506C106.311 34.9506 106.526 34.9358 106.687 34.9196L106.81 34.9059L106.889 34.8954L106.947 34.8865L106.993 34.8788V32.2236C106.993 32.2236 106.778 32.2715 106.443 32.2715C105.606 32.2715 104.027 31.9844 104.027 29.9751V25.0474H106.802V22.6313H104.027V19.3063H101.061V22.6313H99.4102V25.0474H100.989V30.3578Z" fill="white"/>
<path fill-rule="evenodd" clip-rule="evenodd" d="M114.225 35.118C110.182 35.118 107.67 32.1997 107.67 28.7312C107.67 24.9756 110.206 22.3442 113.866 22.3442C117.358 22.3442 119.272 24.9038 119.272 28.1332C119.272 28.4919 119.2 29.2574 119.2 29.2574H110.78C111.02 31.4103 112.598 32.5345 114.44 32.5345C116.401 32.5345 117.861 31.1711 117.861 31.1711L119.128 33.2761C119.128 33.2761 117.263 35.118 114.225 35.118ZM113.866 24.6885C112.311 24.6885 111.211 25.6215 110.876 27.1523H116.162C116.115 25.6932 115.11 24.6885 113.866 24.6885Z" fill="white"/>
<path fill-rule="evenodd" clip-rule="evenodd" d="M121.488 39.6152H124.502V34.5679L124.501 34.4325C124.5 34.3446 124.498 34.2614 124.496 34.1835C124.492 34.0704 124.487 33.9688 124.482 33.8809C124.469 33.6514 124.454 33.5154 124.454 33.5154H124.502C124.502 33.5154 125.579 35.118 127.995 35.118C131.2 35.118 133.592 32.6063 133.592 28.7312C133.592 24.9517 131.463 22.3442 128.162 22.3442C125.315 22.3442 124.287 24.2819 124.287 24.2819H124.239V23.8035C124.239 23.1337 123.833 22.6313 122.708 22.6313H120.005V25.2147H120.962C121.064 25.2147 121.153 25.2303 121.228 25.2623C121.265 25.2786 121.299 25.2992 121.329 25.3241C121.433 25.41 121.488 25.5479 121.488 25.7411V39.6152ZM124.43 28.8029C124.43 26.0999 125.914 24.9517 127.492 24.9517C129.286 24.9517 130.53 26.4586 130.53 28.7791C130.53 31.1951 129.119 32.5585 127.444 32.5585C125.435 32.5585 124.43 30.6926 124.43 28.8029Z" fill="white"/>
<path d="M139.312 35.118C135.962 35.118 134.24 32.9413 134.24 32.9413L135.675 30.9558C135.675 30.9558 137.23 32.7499 139.312 32.7499C140.245 32.7499 140.962 32.3672 140.962 31.5538C140.962 30.8687 139.944 30.4598 138.717 29.9675C136.861 29.2222 134.527 28.2854 134.527 25.9084C134.527 23.4685 136.728 22.3442 139.264 22.3442C140.914 22.3442 143.545 22.8944 143.545 24.8799V26.1477H140.866V25.5497C140.866 24.9756 140.005 24.6885 139.335 24.6885C138.259 24.6885 137.518 25.0713 137.518 25.7888C137.518 26.5675 138.591 26.9659 139.864 27.4386C141.72 28.1276 144 28.9744 144 31.3864C144 33.6827 141.967 35.118 139.312 35.118Z" fill="white"/>
</svg>
