<svg width="39" height="61" viewBox="0 0 39 61" fill="none" xmlns="http://www.w3.org/2000/svg">
<path fill-rule="evenodd" clip-rule="evenodd" d="M14 7C14 9.98535 12.1313 12.5342 9.5 13.5405V20.9595C12.1313 21.9658 14 24.5146 14 27.5C14 30.4854 12.1313 33.0342 9.5 34.0405V41.9595C12.1313 42.9658 14 45.5146 14 48.5C14 51.4854 12.1313 54.0342 9.5 55.0405V58.5C9.5 59.8809 8.38062 61 7 61C5.61938 61 4.5 59.8809 4.5 58.5V55.0405C1.86865 54.0342 0 51.4854 0 48.5C0 45.5146 1.86865 42.9658 4.5 41.9595V34.0405C1.86865 33.0342 0 30.4854 0 27.5C0 24.5146 1.86865 21.9658 4.5 20.9595V13.5405C1.86865 12.5342 0 9.98535 0 7C0 3.13379 3.13403 0 7 0C10.866 0 14 3.13379 14 7ZM7 9.75C8.5188 9.75 9.75 8.51855 9.75 7C9.75 5.48145 8.5188 4.25 7 4.25C5.4812 4.25 4.25 5.48145 4.25 7C4.25 8.51855 5.4812 9.75 7 9.75ZM7 30.25C8.5188 30.25 9.75 29.0186 9.75 27.5C9.75 25.9814 8.5188 24.75 7 24.75C5.4812 24.75 4.25 25.9814 4.25 27.5C4.25 29.0186 5.4812 30.25 7 30.25ZM9.75 48.5C9.75 50.0186 8.5188 51.25 7 51.25C5.4812 51.25 4.25 50.0186 4.25 48.5C4.25 46.9814 5.4812 45.75 7 45.75C8.5188 45.75 9.75 46.9814 9.75 48.5Z" fill="#4BCFC7"/>
<path d="M23.5 50.5C22.1194 50.5 21 49.3809 21 48C21 46.6191 22.1194 45.5 23.5 45.5H36.5C37.8806 45.5 39 46.6191 39 48C39 49.3809 37.8806 50.5 36.5 50.5H23.5Z" fill="#4BCFC7"/>
<path d="M21 27.5C21 28.8809 22.1194 30 23.5 30H36.5C37.8806 30 39 28.8809 39 27.5C39 26.1191 37.8806 25 36.5 25H23.5C22.1194 25 21 26.1191 21 27.5Z" fill="#4BCFC7"/>
<path d="M23.5 9.5C22.1194 9.5 21 8.38086 21 7C21 5.61914 22.1194 4.5 23.5 4.5H36.5C37.8806 4.5 39 5.61914 39 7C39 8.38086 37.8806 9.5 36.5 9.5H23.5Z" fill="#4BCFC7"/>
</svg>
