<svg width="93" height="36" viewBox="0 0 93 36" fill="none" xmlns="http://www.w3.org/2000/svg">
<path d="M2 0C0.895508 0 0 0.895386 0 2C0 3.10461 0.895508 4 2 4C3.10449 4 4 3.10461 4 2C4 0.895386 3.10449 0 2 0Z" fill="white"/>
<path d="M49.6121 31.2401C46.4722 31.2401 44.7322 29.04 44.7322 29.04L46.2122 27.2001C46.2122 27.2001 47.6721 28.88 49.6521 28.88C50.7322 28.88 51.6921 28.3 51.6921 27.2001C51.6921 26.1709 50.4841 25.6156 49.0955 24.9773C47.2188 24.1146 45.0122 23.1003 45.0122 20.5601C45.0122 18.26 47.0122 16.5601 49.7522 16.5601C51.4121 16.5601 53.9722 17.3401 53.9722 19.3601V20.6801H51.6121V20.04C51.6121 19.38 50.6721 18.9401 49.7322 18.9401C48.532 18.9401 47.6521 19.5601 47.6521 20.4601C47.6521 21.4736 48.8237 21.9784 50.1858 22.5652C52.0757 23.3795 54.332 24.3517 54.332 27.0601C54.332 29.3201 52.592 31.2401 49.6121 31.2401Z" fill="white"/>
<path fill-rule="evenodd" clip-rule="evenodd" d="M1.45996 29.64C1.45996 30.6001 1.87988 31 2.81982 31H6.35986C9 31 11.26 29.7201 11.26 26.88C11.26 25.4401 10.52 24 8.97998 23.54V23.5C9.83984 23.0601 10.7 22.04 10.7 20.4601C10.7 18.1201 8.85986 16.8 6.2998 16.8H0.159912V19.02H1.45996V29.64ZM4.07983 22.6001V19.02H6.28003C7.43994 19.02 8.03979 19.76 8.03979 20.78C8.03979 21.8 7.41992 22.6001 6.31982 22.6001H4.07983ZM4.07983 28.3401V24.6801H6.55981C7.81982 24.6801 8.55981 25.54 8.55981 26.7201C8.55981 27.92 7.83984 28.78 6.55981 28.78H4.52002C4.23999 28.78 4.07983 28.6201 4.07983 28.3401Z" fill="white"/>
<path fill-rule="evenodd" clip-rule="evenodd" d="M12.1379 28.0601C12.1379 30.1001 13.7981 31.2401 15.6179 31.2401C17.918 31.2401 18.698 29.4401 18.698 29.4401H18.738C18.738 29.4401 18.718 29.6201 18.718 29.88C18.718 30.4801 19.0781 31 20.0181 31H22.2981V28.8601H21.498C21.218 28.8601 21.0581 28.7001 21.0581 28.42V24.6201C21.0581 22.3401 20.0581 20.5601 16.658 20.5601C15.5981 20.5601 12.918 20.76 12.918 22.66V23.7401H15.2781V23.2001C15.2781 22.64 16.178 22.52 16.6379 22.52C17.938 22.52 18.5181 23.0601 18.5181 24.52V24.6001H18.198C16.5381 24.6001 12.1379 24.8601 12.1379 28.0601ZM14.698 27.9401C14.698 26.52 16.7981 26.3401 18.1179 26.3401H18.5581V26.5801C18.5581 27.8201 17.5981 29.26 16.238 29.26C15.198 29.26 14.698 28.6201 14.698 27.9401Z" fill="white"/>
<path fill-rule="evenodd" clip-rule="evenodd" d="M26.0496 31H23.6494V19.4C23.6494 19.1001 23.4895 18.9601 23.2095 18.9601H22.4094V16.8H24.8293C25.7695 16.8 26.1895 17.2201 26.1895 18.16V21.1201C26.1895 21.6201 26.1494 21.9801 26.1494 21.9801H26.1895C26.1895 21.9801 27.0894 20.5601 29.2495 20.5601C32.0095 20.5601 33.7695 22.7401 33.7695 25.9C33.7695 29.14 31.7896 31.2401 29.0894 31.2401C26.9695 31.2401 26.0496 29.8 26.0496 29.8H26.0095C26.0095 29.8 26.0496 30.0801 26.0496 30.4801V31ZM28.6694 22.7401C27.3494 22.7401 26.1094 23.7001 26.1094 25.9601C26.1094 27.54 26.9495 29.1001 28.6494 29.1001C30.0295 29.1001 31.2095 27.9601 31.2095 25.9401C31.2095 24 30.1694 22.7401 28.6694 22.7401Z" fill="white"/>
<path d="M34.6375 32.3601L33.6575 34.16C33.6575 34.16 34.6375 35.2001 36.2373 35.2001C37.7573 35.2001 39.1975 34.38 39.9175 32.54L43.5774 23.3201C43.6975 23.02 43.8574 22.9601 44.1575 22.9601H44.4575V20.8H42.7373C42.0374 20.8 41.6174 21.0601 41.3774 21.76L39.6375 26.8601C39.5613 27.0806 39.4885 27.3585 39.4299 27.6056C39.3506 27.9414 39.2974 28.2201 39.2974 28.2201H39.2573C39.2573 28.2201 39.0974 27.38 38.8975 26.8601L36.8975 21.76C36.6375 21.0601 36.2773 20.8 35.5574 20.8H33.8774V22.9601H34.1775C34.4575 22.9601 34.5974 23.02 34.7175 23.3201L38.1174 30.9801L37.7773 31.76C37.4175 32.64 36.7974 33.0601 36.0974 33.0601C35.2573 33.0601 34.6375 32.3601 34.6375 32.3601Z" fill="white"/>
<path d="M56.1687 27.26C56.1687 30.6801 58.9888 31.1001 60.4087 31.1001C60.5764 31.1001 60.7256 31.0922 60.8474 31.082C61.0596 31.0643 61.1887 31.04 61.1887 31.04V28.8201C61.1887 28.8201 61.1665 28.825 61.1255 28.8314C61.0925 28.8365 61.0476 28.8427 60.9924 28.8479C60.9207 28.8547 60.8313 28.8601 60.7288 28.8601C60.0286 28.8601 58.7087 28.6201 58.7087 26.9401V22.8201H61.0286V20.8H58.7087V18.02H56.2288V20.8H54.8486V22.8201H56.1687V27.26Z" fill="white"/>
<path fill-rule="evenodd" clip-rule="evenodd" d="M67.2349 31.2401C63.8547 31.2401 61.7546 28.8 61.7546 25.9C61.7546 22.76 63.8748 20.5601 66.9348 20.5601C69.8547 20.5601 71.4548 22.7001 71.4548 25.4C71.4548 25.545 71.4407 25.7695 71.4263 25.9628C71.4109 26.1693 71.3948 26.3401 71.3948 26.3401H64.3547C64.5547 28.14 65.8748 29.0801 67.4148 29.0801C69.0547 29.0801 70.2747 27.9401 70.2747 27.9401L71.3347 29.7001C71.3347 29.7001 69.7747 31.2401 67.2349 31.2401ZM66.9348 22.52C65.6348 22.52 64.7148 23.3 64.4348 24.5801H68.8547C68.8147 23.3601 67.9749 22.52 66.9348 22.52Z" fill="white"/>
<path fill-rule="evenodd" clip-rule="evenodd" d="M73.3076 35H75.8276V30.78C75.8276 30.26 75.7876 29.9 75.7876 29.9H75.8276C75.8276 29.9 76.7275 31.2401 78.7476 31.2401C81.4275 31.2401 83.4275 29.14 83.4275 25.9C83.4275 22.7401 81.6475 20.5601 78.8875 20.5601C76.5076 20.5601 75.6475 22.1801 75.6475 22.1801H75.6077V21.78C75.6077 21.2201 75.2676 20.8 74.3276 20.8H72.0676V22.9601H72.8677C73.1475 22.9601 73.3076 23.1001 73.3076 23.4V35ZM75.7676 25.9601C75.7676 23.7001 77.0076 22.7401 78.3276 22.7401C79.8276 22.7401 80.8677 24 80.8677 25.9401C80.8677 27.9601 79.6875 29.1001 78.2876 29.1001C76.6077 29.1001 75.7676 27.54 75.7676 25.9601Z" fill="white"/>
<path d="M88.2095 31.2401C85.4094 31.2401 83.9695 29.42 83.9695 29.42L85.1694 27.76C85.1694 27.76 86.4695 29.26 88.2095 29.26C88.9895 29.26 89.5894 28.9401 89.5894 28.26C89.5894 27.6873 88.738 27.3455 87.7126 26.9338C86.1604 26.3107 84.2095 25.5273 84.2095 23.54C84.2095 21.5 86.0493 20.5601 88.1694 20.5601C89.5493 20.5601 91.7495 21.02 91.7495 22.6801V23.7401H89.5095V23.2401C89.5095 22.76 88.7896 22.52 88.2295 22.52C87.3293 22.52 86.7095 22.8401 86.7095 23.4401C86.7095 24.0911 87.6067 24.4242 88.6711 24.8195C90.2227 25.3955 92.1294 26.1035 92.1294 28.1201C92.1294 30.04 90.4294 31.2401 88.2095 31.2401Z" fill="white"/>
<path d="M8 2C8 0.895386 8.89551 0 10 0H12C13.1045 0 14 0.895386 14 2C14 3.10461 13.1045 4 12 4H10C8.89551 4 8 3.10461 8 2Z" fill="white"/>
<path d="M20 0C18.8955 0 18 0.895386 18 2C18 3.10461 18.8955 4 20 4H28C29.1045 4 30 3.10461 30 2C30 0.895386 29.1045 0 28 0H20Z" fill="white"/>
<path d="M36 2C36 0.895386 36.8955 0 38 0H54C55.1045 0 56 0.895386 56 2C56 3.10461 55.1045 4 54 4H38C36.8955 4 36 3.10461 36 2Z" fill="white"/>
<path d="M64 0C62.8955 0 62 0.895386 62 2C62 3.10461 62.8955 4 64 4H90C91.1045 4 92 3.10461 92 2C92 0.895386 91.1045 0 90 0H64Z" fill="white"/>
</svg>
