<svg width="40" height="40" viewBox="0 0 40 40" fill="none" xmlns="http://www.w3.org/2000/svg">
<path d="M35 5H29.9367C27.6523 1.98281 24.068 0 20 0C15.932 0 12.3477 1.98281 10.0633 5H5C2.24297 5 0 7.24297 0 10V35C0 37.757 2.24297 40 5 40H35C37.757 40 40 37.757 40 35V10C40 7.24297 37.757 5 35 5ZM20 3.75C24.8328 3.75 28.75 7.66719 28.75 12.5C28.75 17.3328 24.8328 21.25 20 21.25C15.1672 21.25 11.25 17.3328 11.25 12.5C11.25 7.66719 15.1672 3.75 20 3.75ZM36.25 35C36.25 35.6906 35.6906 36.25 35 36.25H5C4.30937 36.25 3.75 35.6906 3.75 35V10C3.75 9.30937 4.30937 8.75 5 8.75H8.13828C7.76016 9.94141 7.5 11.1852 7.5 12.5C7.5 19.3922 13.1078 25 20 25C26.8922 25 32.5 19.3922 32.5 12.5C32.5 11.1852 32.2398 9.94141 31.8617 8.75H35C35.6906 8.75 36.25 9.30937 36.25 10V35ZM20 18.75C21.3805 18.75 22.5 17.6305 22.5 16.25C22.5 15.6203 22.2461 15.0609 21.8609 14.6211L23.6859 9.14531C24.2062 7.57656 21.8398 6.78594 21.3125 8.35469L19.4789 13.8555C18.357 14.1008 17.5 15.0539 17.5 16.25C17.5 17.6305 18.6195 18.75 20 18.75Z" fill="#7396FF"/>
</svg>
