<svg width="143" height="39" viewBox="0 0 143 39" fill="none" xmlns="http://www.w3.org/2000/svg">
<path d="M7.81349 12.1667C7.83407 12.1351 7.86223 12.1091 7.89541 12.0911C7.92859 12.0731 7.96574 12.0637 8.00348 12.0637C8.04123 12.0637 8.07838 12.0731 8.11156 12.0911C8.14474 12.1091 8.1729 12.1351 8.19349 12.1667C8.25325 12.2365 8.3268 12.2932 8.4095 12.3332C8.49222 12.3732 8.5823 12.3957 8.67412 12.3993C8.76593 12.4028 8.85748 12.3874 8.94303 12.3538C9.02858 12.3203 9.10628 12.2695 9.17125 12.2045C9.23622 12.1395 9.28706 12.0618 9.32058 11.9763C9.35409 11.8907 9.36956 11.7992 9.36602 11.7074C9.36247 11.6156 9.33998 11.5255 9.29997 11.4428C9.25995 11.3601 9.20327 11.2865 9.13348 11.2267C8.82831 10.935 8.42236 10.7721 8.00015 10.7721C7.57794 10.7721 7.17199 10.935 6.86682 11.2267C6.79703 11.2865 6.74035 11.3601 6.70034 11.4428C6.66032 11.5255 6.63783 11.6156 6.63429 11.7074C6.63074 11.7992 6.64621 11.8907 6.67973 11.9763C6.71324 12.0618 6.76408 12.1395 6.82905 12.2045C6.89402 12.2695 6.97172 12.3203 7.05727 12.3538C7.14282 12.3874 7.23437 12.4028 7.32619 12.3993C7.418 12.3957 7.50809 12.3732 7.5908 12.3332C7.67351 12.2932 7.74705 12.2365 7.80682 12.1667H7.81349Z" fill="#223344"/>
<path d="M12.0032 16.6586C11.0724 16.6586 10.1795 16.29 9.51985 15.6333H9.52652C9.4173 15.5058 9.36023 15.3417 9.36671 15.1739C9.37319 15.0062 9.44274 14.847 9.56147 14.7283C9.6802 14.6095 9.83936 14.54 10.0071 14.5335C10.1749 14.527 10.339 14.5841 10.4665 14.6933C10.8752 15.1012 11.4291 15.3303 12.0065 15.3303C12.584 15.3303 13.1378 15.1012 13.5465 14.6933C13.6063 14.6235 13.6798 14.5668 13.7625 14.5268C13.8452 14.4868 13.9353 14.4643 14.0271 14.4608C14.119 14.4572 14.2105 14.4727 14.2961 14.5062C14.3816 14.5397 14.4593 14.5906 14.5243 14.6555C14.5893 14.7205 14.6401 14.7982 14.6736 14.8838C14.7071 14.9693 14.7226 15.0609 14.719 15.1527C14.7155 15.2445 14.693 15.3346 14.653 15.4173C14.613 15.5 14.5563 15.5736 14.4865 15.6333C13.8269 16.29 12.934 16.6586 12.0032 16.6586Z" fill="#223344"/>
<path d="M15.8135 12.1667C15.8341 12.1351 15.8622 12.1091 15.8954 12.0911C15.9286 12.0731 15.9657 12.0637 16.0035 12.0637C16.0412 12.0637 16.0784 12.0731 16.1116 12.0911C16.1447 12.1091 16.1729 12.1351 16.1935 12.1667C16.2533 12.2365 16.3268 12.2932 16.4095 12.3332C16.4922 12.3732 16.5823 12.3957 16.6741 12.3993C16.7659 12.4028 16.8575 12.3874 16.943 12.3538C17.0286 12.3203 17.1063 12.2695 17.1713 12.2045C17.2362 12.1395 17.2871 12.0618 17.3206 11.9763C17.3541 11.8907 17.3696 11.7992 17.366 11.7074C17.3625 11.6156 17.34 11.5255 17.3 11.4428C17.26 11.3601 17.2033 11.2865 17.1335 11.2267C16.8283 10.935 16.4224 10.7721 16.0002 10.7721C15.5779 10.7721 15.172 10.935 14.8668 11.2267C14.797 11.2865 14.7403 11.3601 14.7003 11.4428C14.6603 11.5255 14.6378 11.6156 14.6343 11.7074C14.6307 11.7992 14.6462 11.8907 14.6797 11.9763C14.7132 12.0618 14.7641 12.1395 14.829 12.2045C14.894 12.2695 14.9717 12.3203 15.0573 12.3538C15.1428 12.3874 15.2344 12.4028 15.3262 12.3993C15.418 12.3957 15.5081 12.3732 15.5908 12.3332C15.6735 12.2932 15.7471 12.2365 15.8068 12.1667H15.8135Z" fill="#223344"/>
<path fill-rule="evenodd" clip-rule="evenodd" d="M12 37.3333C15.1799 37.3245 18.227 36.0574 20.4756 33.8089C22.7241 31.5604 23.9912 28.5132 24 25.3333V12C24 8.8174 22.7357 5.76515 20.4853 3.51472C18.2348 1.26428 15.1826 0 12 0C8.8174 0 5.76516 1.26428 3.51472 3.51472C1.26428 5.76515 0 8.8174 0 12V25.3333C0.00879643 28.5132 1.2759 31.5604 3.52444 33.8089C5.77297 36.0574 8.82011 37.3245 12 37.3333ZM9.06 4.56667C9.0944 4.55369 9.13145 4.54927 9.16793 4.55381C9.20442 4.55834 9.23926 4.57168 9.26945 4.59267C9.29963 4.61367 9.32425 4.6417 9.34119 4.67433C9.35813 4.70697 9.36687 4.74323 9.36667 4.78C9.36842 5.2763 9.56636 5.75177 9.91729 6.10271C10.2682 6.45364 10.7437 6.65158 11.24 6.65333H12.7933C13.2896 6.65158 13.7651 6.45364 14.116 6.10271C14.467 5.75177 14.6649 5.2763 14.6667 4.78C14.6665 4.74323 14.6752 4.70697 14.6921 4.67433C14.7091 4.6417 14.7337 4.61367 14.7639 4.59267C14.7941 4.57168 14.8289 4.55834 14.8654 4.55381C14.9019 4.54927 14.9389 4.55369 14.9733 4.56667C16.7022 5.2543 18.1372 6.523 19.0317 8.15447C19.9261 9.78594 20.2239 11.6781 19.8738 13.5055C19.5237 15.3328 18.5477 16.981 17.1136 18.1664C15.6796 19.3518 13.8772 20.0002 12.0167 20.0002C10.1561 20.0002 8.35374 19.3518 6.91969 18.1664C5.48565 16.981 4.50961 15.3328 4.15955 13.5055C3.80948 11.6781 4.10727 9.78594 5.00168 8.15447C5.89609 6.523 7.33118 5.2543 9.06 4.56667Z" fill="#223344"/>
<path d="M92.1472 34.118C88.3916 34.118 86.3105 31.4867 86.3105 31.4867L88.0806 29.286C88.0806 29.286 89.8269 31.2954 92.1951 31.2954C93.4868 31.2954 94.635 30.6017 94.635 29.286C94.635 28.0551 93.19 27.3909 91.5291 26.6275C89.2845 25.5957 86.6454 24.3826 86.6454 21.3443C86.6454 18.5933 89.0375 16.5601 92.3147 16.5601C94.3001 16.5601 97.362 17.493 97.362 19.909V21.4878H94.5393V20.7223C94.5393 19.9329 93.415 19.4067 92.2907 19.4067C90.8555 19.4067 89.803 20.1482 89.803 21.2246C89.803 22.4369 91.2044 23.0407 92.8334 23.7426C95.0939 24.7166 97.7926 25.8793 97.7926 29.1186C97.7926 31.8216 95.7114 34.118 92.1472 34.118Z" fill="#223344"/>
<path fill-rule="evenodd" clip-rule="evenodd" d="M34.5549 32.2044C34.5549 33.3526 35.0572 33.831 36.1815 33.831H40.4155C43.5731 33.831 46.2761 32.3001 46.2761 28.9033C46.2761 27.181 45.3911 25.4587 43.5491 24.9085V24.8606C44.5777 24.3344 45.6063 23.1144 45.6063 21.2246C45.6063 18.4259 43.4056 16.8471 40.3437 16.8471H33V19.5023H34.5549V32.2044ZM37.6885 23.7842V19.5023H40.3198C41.7072 19.5023 42.4249 20.3874 42.4249 21.6074C42.4249 22.8274 41.6833 23.7842 40.3677 23.7842H37.6885ZM37.6885 30.6495V26.272H40.6547C42.1617 26.272 43.0468 27.3006 43.0468 28.7119C43.0468 30.1472 42.1857 31.1758 40.6547 31.1758H38.2148C37.8799 31.1758 37.6885 30.9844 37.6885 30.6495Z" fill="#223344"/>
<path fill-rule="evenodd" clip-rule="evenodd" d="M47.3264 30.3146C47.3264 32.7546 49.3119 34.118 51.4887 34.118C54.2396 34.118 55.1725 31.9652 55.1725 31.9652H55.2203C55.2203 31.9652 55.1964 32.1805 55.1964 32.4914C55.1964 33.2091 55.627 33.831 56.7513 33.831H59.4783V31.2715H58.5214C58.1865 31.2715 57.9952 31.0801 57.9952 30.7452V26.2002C57.9952 23.4732 56.7991 21.3443 52.7326 21.3443C51.4647 21.3443 48.2593 21.5835 48.2593 23.856V25.1477H51.082V24.5018C51.082 23.832 52.1585 23.6885 52.7086 23.6885C54.2635 23.6885 54.9572 24.3344 54.9572 26.0806V26.1763H54.5745C52.589 26.1763 47.3264 26.4873 47.3264 30.3146ZM50.3883 30.1711C50.3883 28.4727 52.9 28.2574 54.4788 28.2574H55.005V28.5445C55.005 30.0276 53.8568 31.7499 52.2302 31.7499C50.9863 31.7499 50.3883 30.9844 50.3883 30.1711Z" fill="#223344"/>
<path fill-rule="evenodd" clip-rule="evenodd" d="M63.9651 33.831H61.0946V19.9568C61.0946 19.598 60.9032 19.4306 60.5684 19.4306H59.6115V16.8471H62.506C63.6302 16.8471 64.1326 17.3495 64.1326 18.4737V22.014C64.1326 22.6121 64.0847 23.0426 64.0847 23.0426H64.1326C64.1326 23.0426 65.209 21.3443 67.7925 21.3443C71.0936 21.3443 73.1986 23.9516 73.1986 27.7312C73.1986 31.6063 70.8305 34.118 67.6011 34.118C65.0655 34.118 63.9651 32.3957 63.9651 32.3957H63.9173C63.9173 32.3957 63.9651 32.7306 63.9651 33.2091V33.831ZM67.0988 23.9516C65.52 23.9516 64.0369 25.0998 64.0369 27.8029C64.0369 29.6927 65.0416 31.5585 67.0749 31.5585C68.7254 31.5585 70.1367 30.195 70.1367 27.779C70.1367 25.4587 68.8929 23.9516 67.0988 23.9516Z" fill="#223344"/>
<path d="M74.2368 35.4576L73.0646 37.6105C73.0646 37.6105 74.2368 38.8544 76.1504 38.8544C77.9684 38.8544 79.6907 37.8736 80.5519 35.6729L84.9294 24.6453C85.073 24.2865 85.2643 24.2148 85.6231 24.2148H85.982V21.6313H83.9248C83.0875 21.6313 82.5852 21.9423 82.2981 22.7795L80.217 28.8794C80.0017 29.5013 79.8103 30.506 79.8103 30.506H79.7625C79.7625 30.506 79.5711 29.5013 79.3319 28.8794L76.9398 22.7795C76.6289 21.9423 76.1983 21.6313 75.3371 21.6313H73.3278V24.2148H73.6866C74.0215 24.2148 74.1889 24.2865 74.3324 24.6453L78.399 33.8071L77.9923 34.74C77.5618 35.7925 76.8202 36.2949 75.983 36.2949C74.9783 36.2949 74.2368 35.4576 74.2368 35.4576Z" fill="#223344"/>
<path d="M99.9892 29.3578C99.9892 33.4483 103.362 33.9506 105.06 33.9506C105.611 33.9506 105.993 33.8788 105.993 33.8788V31.2236C105.993 31.2236 105.778 31.2715 105.443 31.2715C104.606 31.2715 103.027 30.9844 103.027 28.975V24.0473H105.802V21.6313H103.027V18.3063H100.061V21.6313H98.4104V24.0473H99.9892V29.3578Z" fill="#223344"/>
<path fill-rule="evenodd" clip-rule="evenodd" d="M113.225 34.118C109.182 34.118 106.67 31.1997 106.67 27.7312C106.67 23.9756 109.206 21.3443 112.866 21.3443C116.358 21.3443 118.272 23.9038 118.272 27.1331C118.272 27.4919 118.2 28.2574 118.2 28.2574H109.78C110.019 30.4103 111.598 31.5346 113.44 31.5346C115.402 31.5346 116.861 30.1711 116.861 30.1711L118.129 32.2761C118.129 32.2761 116.263 34.118 113.225 34.118ZM112.866 23.6885C111.311 23.6885 110.211 24.6214 109.876 26.1524H115.162C115.115 24.6932 114.11 23.6885 112.866 23.6885Z" fill="#223344"/>
<path fill-rule="evenodd" clip-rule="evenodd" d="M120.488 38.6152H123.502V33.5679C123.502 32.9459 123.454 32.5153 123.454 32.5153H123.502C123.502 32.5153 124.579 34.118 126.995 34.118C130.2 34.118 132.592 31.6063 132.592 27.7312C132.592 23.9516 130.463 21.3443 127.162 21.3443C124.315 21.3443 123.287 23.2819 123.287 23.2819H123.239V22.8034C123.239 22.1336 122.832 21.6313 121.708 21.6313H119.005V24.2148H119.962C120.297 24.2148 120.488 24.3822 120.488 24.741V38.6152ZM123.43 27.8029C123.43 25.0998 124.914 23.9516 126.492 23.9516C128.286 23.9516 129.53 25.4587 129.53 27.779C129.53 30.195 128.119 31.5585 126.444 31.5585C124.435 31.5585 123.43 29.6927 123.43 27.8029Z" fill="#223344"/>
<path d="M138.311 34.118C134.963 34.118 133.24 31.9412 133.24 31.9412L134.676 29.9558C134.676 29.9558 136.23 31.7499 138.311 31.7499C139.244 31.7499 139.962 31.3671 139.962 30.5538C139.962 29.8687 138.944 29.4599 137.717 28.9675C135.861 28.2222 133.527 27.2853 133.527 24.9085C133.527 22.4685 135.728 21.3443 138.264 21.3443C139.914 21.3443 142.546 21.8944 142.546 23.8799V25.1477H139.866V24.5497C139.866 23.9756 139.005 23.6885 138.335 23.6885C137.259 23.6885 136.517 24.0712 136.517 24.7889C136.517 25.5675 137.591 25.966 138.864 26.4386C140.719 27.1277 143 27.9744 143 30.3864C143 32.6828 140.967 34.118 138.311 34.118Z" fill="#223344"/>
</svg>
