<svg width="44" height="44" viewBox="0 0 44 44" fill="none" xmlns="http://www.w3.org/2000/svg">
<path d="M14.8387 18.9415C15.7836 18.9415 16.5544 19.1653 17.1512 19.6129L17.8226 20.2843C18.121 20.5826 18.4442 20.6324 18.7924 20.4335C19.1902 20.2346 19.3643 19.9113 19.3146 19.4637C19.1653 18.5685 18.6183 17.8226 17.6733 17.2258C16.7782 16.629 15.8334 16.3306 14.8387 16.3306C13.8441 16.3306 12.8743 16.629 11.9294 17.2258C11.0343 17.8226 10.5121 18.5685 10.3629 19.4637C10.3132 19.9113 10.4624 20.2346 10.8104 20.4335C11.2084 20.6324 11.5564 20.5826 11.8549 20.2843L12.6008 19.6129C13.1478 19.1653 13.8938 18.9415 14.8387 18.9415Z" fill="#47C2F6"/>
<path d="M19.4637 32.5181C20.1599 33.463 21.0054 33.9355 22 33.9355C22.9946 33.9355 23.8401 33.463 24.5363 32.5181C25.2325 31.5732 25.5807 30.4543 25.5807 29.1613C25.5807 27.8683 25.2325 26.7493 24.5363 25.8044C23.8401 24.8596 22.9946 24.3871 22 24.3871C21.0054 24.3871 20.1599 24.8596 19.4637 25.8044C18.7675 26.7493 18.4193 27.8683 18.4193 29.1613C18.4193 30.4543 18.7675 31.5732 19.4637 32.5181Z" fill="#47C2F6"/>
<path d="M32.1451 20.2843C32.4436 20.5826 32.7916 20.6075 33.1895 20.3589C33.5376 20.2097 33.6868 19.9113 33.6371 19.4637C33.4879 18.5685 32.9409 17.8226 31.996 17.2258C31.1008 16.629 30.1559 16.3306 29.1613 16.3306C28.1666 16.3306 27.1969 16.629 26.2521 17.2258C25.3568 17.8226 24.8347 18.5685 24.6854 19.4637C24.6357 19.9113 24.7849 20.2346 25.1331 20.4335C25.5309 20.6324 25.879 20.5826 26.1774 20.2843L26.9233 19.6129C27.4705 19.1653 28.2164 18.9415 29.1613 18.9415C30.1559 18.8918 30.9268 19.1156 31.4738 19.6129L32.1451 20.2843Z" fill="#47C2F6"/>
<path fill-rule="evenodd" clip-rule="evenodd" d="M22 44C34.1503 44 44 34.1503 44 22C44 9.84973 34.1503 0 22 0C9.84973 0 0 9.84973 0 22C0 34.1503 9.84973 44 22 44ZM12.75 6.03632C15.5847 4.34546 18.668 3.5 22 3.5C25.332 3.5 28.4153 4.34546 31.25 6.03632C34.0847 7.67743 36.3226 9.91534 37.9637 12.75C39.6545 15.5847 40.5 18.668 40.5 22C40.5 25.2823 39.6794 28.3407 38.0383 31.1754C36.4469 33.9603 34.2836 36.1734 31.5483 37.8145V24.3871C31.5483 24.039 31.4241 23.7654 31.1754 23.5665C30.9764 23.3179 30.703 23.1935 30.3549 23.1935C30.0067 23.1935 29.7084 23.3179 29.4597 23.5665C29.2607 23.7654 29.1613 24.039 29.1613 24.3871V39.0826C26.8737 40.0275 24.4866 40.5 22 40.5C19.5134 40.5 17.1263 40.0275 14.8387 39.0826V24.3871C14.8387 24.039 14.7144 23.7654 14.4657 23.5665C14.2668 23.3179 13.9933 23.1935 13.6451 23.1935C13.297 23.1935 12.9987 23.3179 12.75 23.5665C12.551 23.7654 12.4517 24.039 12.4517 24.3871V37.8145C9.71643 36.1734 7.5282 33.9603 5.88708 31.1754C4.29565 28.3407 3.5 25.2823 3.5 22C3.5 18.668 4.32056 15.5847 5.96167 12.75C7.65259 9.91534 9.91528 7.67743 12.75 6.03632Z" fill="#47C2F6"/>
</svg>
