<svg width="22" height="46" viewBox="0 0 22 46" fill="none" xmlns="http://www.w3.org/2000/svg">
<path d="M19 0H3C1.34344 0 0 1.34344 0 3V43C0 44.6566 1.34344 46 3 46H19C20.6566 46 22 44.6566 22 43V3C22 1.34344 20.6566 0 19 0ZM3.5 42.5V3.5H18.5V8H13.25C12.8356 8 12.5 8.33562 12.5 8.75V10.25C12.5 10.6644 12.8356 11 13.25 11H18.5V17H13.25C12.8356 17 12.5 17.3356 12.5 17.75V19.25C12.5 19.6644 12.8356 20 13.25 20H18.5V26H13.25C12.8356 26 12.5 26.3356 12.5 26.75V28.25C12.5 28.6644 12.8356 29 13.25 29H18.5V35H13.25C12.8356 35 12.5 35.3356 12.5 35.75V37.25C12.5 37.6644 12.8356 38 13.25 38H18.5V42.5H3.5Z" fill="#FF525D"/>
</svg>
