<svg width="512" height="512" viewBox="0 0 512 512" fill="none" xmlns="http://www.w3.org/2000/svg">
<circle cx="256" cy="256" r="200" fill="white"/>
<path d="M168.438 253.969C168.094 254.156 167.75 254.391 167.438 254.656L166.938 255.234L166.687 255.547C166.283 255.927 165.896 256.29 165.508 256.632C165.146 256.952 164.783 257.252 164.406 257.531C163.97 257.858 163.503 258.164 163.016 258.442C162.665 258.643 162.304 258.83 161.938 259C160.188 259.828 158.25 260.297 156.313 260.375H155.469C154.75 260.359 154.031 260.297 153.313 260.172C152.375 260.016 151.438 259.766 150.562 259.422C148.75 258.734 147.094 257.672 145.687 256.328C144.313 254.984 143.219 253.359 142.5 251.594C141.781 249.812 141.469 247.906 141.531 246C141.625 244.109 142.094 242.234 142.938 240.516C143.812 238.797 145 237.266 146.5 236.032C153 229.969 161.687 226.594 170.687 226.594C171.938 226.594 173.156 226.656 174.375 226.781C176.562 227 178.719 227.438 180.812 228.062C186.031 229.594 190.844 232.297 194.844 236.032C196.344 237.266 197.562 238.797 198.406 240.516L198.75 241.281L199.219 242.531C199.562 243.656 199.781 244.828 199.812 246C199.906 247.906 199.562 249.812 198.844 251.594C198.125 253.359 197.062 254.984 195.656 256.328L194.906 257.032C194.694 257.203 194.482 257.367 194.267 257.525C193.911 257.786 193.546 258.032 193.156 258.266L192.719 258.516L192.344 258.734L191.313 259.219L190.781 259.422C188.969 260.125 187.031 260.438 185.062 260.375C183.094 260.297 181.188 259.828 179.406 259C177.656 258.172 176.094 256.984 174.812 255.547L174.344 254.969L173.969 254.609C173.865 254.517 173.757 254.429 173.646 254.346C173.457 254.205 173.26 254.077 173.062 253.969L172.625 253.766L171.969 253.547L171.531 253.469L170.75 253.407C170.375 253.407 170 253.453 169.625 253.531C169.394 253.584 169.163 253.653 168.938 253.739C168.767 253.805 168.599 253.881 168.438 253.969Z" fill="#223344"/>
<path d="M203.254 327.495C207.566 331.716 212.379 335.37 217.566 338.401C229.066 345.137 242.379 348.762 256.097 348.762C275.941 348.762 294.972 341.121 309.066 327.495C310.535 326.247 311.754 324.73 312.597 323.012L313.254 321.402L313.722 319.886C313.798 319.572 313.858 319.256 313.905 318.938C313.943 318.68 313.973 318.42 313.995 318.16C314.013 317.944 314.027 317.728 314.035 317.511C314.066 316.574 314.004 315.652 313.848 314.73C313.742 314.086 313.58 313.45 313.379 312.825C313.283 312.525 313.178 312.228 313.066 311.934C312.848 311.417 312.629 310.918 312.347 310.433L311.848 309.621L311.473 309.027L310.722 308.09L309.879 307.199C309.129 306.48 308.316 305.84 307.441 305.293C307.066 305.068 306.683 304.857 306.294 304.662C306.062 304.546 305.828 304.437 305.592 304.333C305.397 304.248 305.201 304.167 305.004 304.09C303.16 303.402 301.223 303.074 299.254 303.152C297.879 303.199 296.504 303.449 295.191 303.886L293.629 304.511L292.722 304.98L291.441 305.777L290.16 306.792L289.004 307.98C285.254 311.637 280.91 314.589 276.191 316.777C272.879 318.324 269.379 319.48 265.785 320.215C262.66 320.871 259.41 321.199 256.16 321.199C243.848 321.199 232.004 316.449 223.285 307.98C220.566 305.714 217.066 304.527 213.504 304.668C209.91 304.792 206.535 306.23 204.004 308.699C201.473 311.167 199.972 314.465 199.848 317.949C199.816 318.652 199.848 319.339 199.941 320.027C200.035 320.949 200.223 321.855 200.504 322.73C201.066 324.465 202.004 326.09 203.254 327.495Z" fill="#223344"/>
<path d="M337.219 255.547C337.811 254.891 338.406 254.344 339.126 253.969C339.236 253.908 339.349 253.853 339.465 253.802C339.709 253.695 339.963 253.61 340.217 253.547C340.595 253.453 340.998 253.407 341.404 253.407L342.438 253.5C342.578 253.53 342.718 253.567 342.858 253.61C343.152 253.701 343.442 253.82 343.718 253.969C344.438 254.344 345.03 254.891 345.468 255.547C346.748 256.984 348.313 258.172 350.092 259L351.718 259.656C352.313 259.86 352.937 260.016 353.561 260.125L354.78 260.313L355.718 260.375C357.686 260.438 359.625 260.125 361.468 259.422C363.28 258.734 364.937 257.672 366.342 256.328C366.937 255.734 367.5 255.094 367.968 254.407L368.531 253.562C368.905 252.938 369.251 252.281 369.532 251.594C370.217 249.812 370.563 247.906 370.499 246C370.406 244.109 369.936 242.234 369.062 240.516L368.313 239.188L367.782 238.407C367.126 237.531 366.374 236.734 365.532 236.032L363.5 234.297C360.217 231.688 356.499 229.688 352.531 228.391C348.969 227.203 345.187 226.594 341.344 226.594C336.748 226.594 332.249 227.469 328.092 229.125C324.092 230.719 320.374 233.047 317.156 236.032C315.687 237.266 314.468 238.797 313.625 240.516L313.343 241.125C312.968 242 312.687 242.938 312.499 243.891C312.343 244.594 312.249 245.297 312.218 246C312.125 247.906 312.468 249.812 313.187 251.594C313.451 252.235 313.749 252.853 314.095 253.445C314.322 253.834 314.57 254.213 314.843 254.579C315.312 255.203 315.812 255.797 316.375 256.328C317.75 257.672 319.406 258.734 321.219 259.422C323.062 260.125 324.998 260.438 326.969 260.375C327.431 260.354 327.894 260.312 328.354 260.25C328.887 260.178 329.416 260.079 329.936 259.954C330.873 259.719 331.75 259.407 332.624 259C333.718 258.485 334.719 257.844 335.625 257.078C336.188 256.609 336.719 256.094 337.219 255.547Z" fill="#223344"/>
<path fill-rule="evenodd" clip-rule="evenodd" d="M256 512C397.376 512 512 397.392 512 256C512 114.609 397.376 0 256 0C114.625 0 0 114.609 0 256C0 397.392 114.625 512 256 512ZM194.701 97.4893C194.212 97.5176 193.728 97.6162 193.281 97.7812C156.406 112.062 125.781 138.391 106.687 172.266C103.438 178.062 100.531 184.016 98 190.094C95.75 195.547 93.8125 201.094 92.1875 206.719C89.5312 215.781 87.6873 225.047 86.6562 234.406C85.8438 241.828 85.5625 249.297 85.781 256.781C86.0625 265.656 87.0312 274.531 88.75 283.328C96.219 321.25 117.031 355.467 147.625 380.079C163.469 392.798 181.375 402.545 200.5 408.984C211.625 412.734 223.156 415.375 234.938 416.827C238.219 417.233 241.531 417.547 244.875 417.765C248.687 418.014 252.5 418.139 256.344 418.139C296.062 418.139 334.499 404.67 365.094 380.079C395.686 355.467 416.499 321.25 423.968 283.328C431.437 245.391 425.094 206.125 406 172.266C386.938 138.391 356.313 112.062 319.438 97.7812C318.687 97.5156 317.906 97.4219 317.125 97.5156C316.344 97.6094 315.594 97.8906 314.969 98.3281C314.562 98.6094 314.188 98.9531 313.875 99.3438L313.438 100.016C313.219 100.438 313.062 100.891 312.969 101.359L312.875 102.219C312.875 103.812 312.781 105.391 312.562 106.953C312.031 111.062 310.844 115.062 309.031 118.797C307.875 121.125 306.5 123.344 304.906 125.406C303.781 126.906 302.531 128.328 301.156 129.672L299.219 131.438C298 132.484 296.719 133.453 295.375 134.328C293.219 135.766 290.906 136.984 288.531 137.969C283.625 139.984 278.344 141.078 272.938 141.094H239.781C229.188 141.062 219.062 136.953 211.562 129.672C208.406 126.578 205.812 123.031 203.875 119.172C201.25 113.938 199.844 108.141 199.812 102.219L199.719 101.359L199.531 100.578L199.281 100.016C198.906 99.3438 198.406 98.7656 197.75 98.3281C197.344 98.0469 196.906 97.8438 196.438 97.7031L195.594 97.5156C195.298 97.48 194.999 97.4717 194.701 97.4893Z" fill="#223344"/>
</svg>
