<svg width="32" height="40" viewBox="0 0 32 40" fill="none" xmlns="http://www.w3.org/2000/svg">
<path fill-rule="evenodd" clip-rule="evenodd" d="M14 29.5C14 29.625 14.0417 29.75 14.125 29.875C14.25 29.9583 14.375 30 14.5 30H17.5C17.625 30 17.7292 29.9583 17.8125 29.875C17.9375 29.75 18 29.625 18 29.5V26H21.5C21.625 26 21.7292 25.9583 21.8125 25.875C21.9375 25.75 22 25.625 22 25.5V22.5C22 22.375 21.9375 22.2708 21.8125 22.1875C21.7292 22.0625 21.625 22 21.5 22H18V18.5C18 18.375 17.9375 18.2708 17.8125 18.1875C17.7292 18.0625 17.625 18 17.5 18H14.5C14.375 18 14.25 18.0625 14.125 18.1875C14.0417 18.2708 14 18.375 14 18.5V22H10.5C10.375 22 10.25 22.0625 10.125 22.1875C10.0417 22.2708 10 22.375 10 22.5V25.5C10 25.625 10.0417 25.75 10.125 25.875C10.25 25.9583 10.375 26 10.5 26H14V29.5ZM26 34C26 34.5417 25.7917 35 25.375 35.375C25 35.7917 24.5417 36 24 36H8C7.45833 36 6.97917 35.7917 6.5625 35.375C6.1875 35 6 34.5417 6 34V12H26V34ZM2 12.747C1.8653 12.6354 1.73486 12.5167 1.60907 12.3909C0.558743 11.3406 0 9.96543 0 8.5V5.5C0 4.03457 0.558743 2.6594 1.60907 1.60907C2.6594 0.558743 4.03457 0 5.5 0H26.5C27.9654 0 29.3406 0.558743 30.3909 1.60907C31.4413 2.6594 32 4.03457 32 5.5V8.5C32 9.96543 31.4413 11.3406 30.3909 12.3909C30.2651 12.5167 30.1347 12.6354 30 12.747V34C30 35.6465 29.3373 37.1144 28.2048 38.2048C27.1144 39.3373 25.6465 40 24 40H8C6.29898 40 4.82825 39.2976 3.73407 38.2034C2.59114 37.0605 2 35.5771 2 34V12.747ZM4 8.5C4 8.91667 4.14583 9.27083 4.4375 9.5625C4.72917 9.85417 5.08333 10 5.5 10H26.5C26.9167 10 27.2708 9.85417 27.5625 9.5625C27.8542 9.27083 28 8.91667 28 8.5V5.5C28 5.08333 27.8542 4.72917 27.5625 4.4375C27.2708 4.14583 26.9167 4 26.5 4H5.5C5.08333 4 4.72917 4.14583 4.4375 4.4375C4.14583 4.72917 4 5.08333 4 5.5V8.5Z" fill="#79DF49"/>
</svg>
