<svg width="22" height="45" viewBox="0 0 22 45" fill="none" xmlns="http://www.w3.org/2000/svg">
<path d="M16.5 33.5C16.5 35.0469 15.9557 36.3646 14.8672 37.4531C13.8359 38.4844 12.5469 39 11 39C9.45312 39 8.13542 38.4844 7.04688 37.4531C6.01562 36.3646 5.5 35.0469 5.5 33.5C5.5 32.526 5.72917 31.6094 6.1875 30.75C6.70312 29.8906 7.39062 29.2318 8.25 28.7734V19.75C8.25 19.0052 8.50781 18.375 9.02344 17.8594C9.59635 17.2865 10.2552 17 11 17C11.7448 17 12.375 17.2865 12.8906 17.8594C13.4635 18.375 13.75 19.0052 13.75 19.75V28.7734C14.6094 29.2318 15.2682 29.8906 15.7266 30.75C16.2422 31.6094 16.5 32.526 16.5 33.5ZM19.25 26.1953C21.0833 28.3151 22 30.75 22 33.5C22 35.5052 21.513 37.3385 20.5391 39C19.5651 40.7188 18.2188 42.0651 16.5 43.0391C14.8385 44.013 13.0052 44.5 11 44.5H10.9141C8.96615 44.5 7.13281 43.9844 5.41406 42.9531C3.7526 41.9792 2.4349 40.6615 1.46094 39C0.486979 37.2812 0 35.4193 0 33.4141C0 30.6641 0.916667 28.2578 2.75 26.1953V8.75C2.75 6.45833 3.55208 4.51042 5.15625 2.90625C6.76042 1.30208 8.70833 0.5 11 0.5C13.2917 0.5 15.2396 1.30208 16.8438 2.90625C18.4479 4.51042 19.25 6.45833 19.25 8.75V26.1953ZM17.875 33.5C17.875 32.2969 17.5885 31.2083 17.0156 30.2344C16.7292 29.6615 16.2135 28.974 15.4688 28.1719L15.125 27.7422V8.75C15.125 7.60417 14.724 6.63021 13.9219 5.82812C13.1198 5.02604 12.1458 4.625 11 4.625C9.85417 4.625 8.88021 5.02604 8.07812 5.82812C7.27604 6.63021 6.875 7.60417 6.875 8.75V27.7422L6.53125 28.1719C5.78646 28.974 5.27083 29.6615 4.98438 30.2344C4.41146 31.2083 4.125 32.2969 4.125 33.5C4.125 35.3333 4.78385 36.9375 6.10156 38.3125C7.47656 39.6875 9.08073 40.375 10.9141 40.375H11C12.8906 40.375 14.4948 39.7161 15.8125 38.3984C17.1875 37.0234 17.875 35.3906 17.875 33.5Z" fill="#FFB920"/>
</svg>
