<svg width="512" height="140" viewBox="0 0 512 140" fill="none" xmlns="http://www.w3.org/2000/svg">
<path d="M27.9756 43.5622C28.0492 43.4491 28.1501 43.356 28.2689 43.2915C28.3877 43.2271 28.5207 43.1934 28.6558 43.1934C28.791 43.1934 28.924 43.2271 29.0428 43.2915C29.1616 43.356 29.2624 43.4491 29.3361 43.5622C29.5501 43.8121 29.8134 44.0151 30.1095 44.1583C30.4057 44.3015 30.7282 44.3821 31.057 44.395C31.3857 44.4075 31.7135 44.3524 32.0198 44.2321C32.3261 44.1121 32.6043 43.9303 32.8369 43.6975C33.0695 43.4648 33.2516 43.1866 33.3716 42.8805C33.4916 42.574 33.5469 42.2464 33.5343 41.9177C33.5216 41.589 33.441 41.2664 33.2978 40.9703C33.1545 40.6742 32.9516 40.4107 32.7017 40.1966C31.609 39.1522 30.1556 38.5689 28.6439 38.5689C27.1322 38.5689 25.6787 39.1522 24.5861 40.1966C24.3362 40.4107 24.1333 40.6742 23.99 40.9703C23.8467 41.2664 23.7662 41.589 23.7535 41.9177C23.7408 42.2464 23.7962 42.574 23.9162 42.8805C24.0362 43.1866 24.2182 43.4648 24.4509 43.6975C24.6835 43.9303 24.9617 44.1121 25.268 44.2321C25.5743 44.3524 25.9021 44.4075 26.2308 44.395C26.5595 44.3821 26.8821 44.3015 27.1782 44.1583C27.4744 44.0151 27.7377 43.8121 27.9517 43.5622H27.9756Z" fill="#223344"/>
<path d="M42.9765 59.6446C39.6438 59.6446 36.4469 58.3248 34.0851 55.9736H34.1089C33.7179 55.517 33.5135 54.9295 33.5367 54.3287C33.5599 53.7283 33.809 53.1583 34.2341 52.7333C34.6592 52.3079 35.229 52.0591 35.8296 52.0358C36.4304 52.0125 37.018 52.217 37.4745 52.608C38.9378 54.0684 40.921 54.8887 42.9883 54.8887C45.056 54.8887 47.0388 54.0684 48.5022 52.608C48.7163 52.358 48.9794 52.155 49.2755 52.0118C49.5716 51.8686 49.8942 51.788 50.2229 51.7755C50.5519 51.7626 50.8795 51.8181 51.186 51.9381C51.4922 52.058 51.7704 52.2402 52.0031 52.4726C52.2358 52.7053 52.4177 52.9835 52.5376 53.29C52.6576 53.5962 52.7131 53.9241 52.7002 54.2528C52.6877 54.5815 52.6071 54.9041 52.4639 55.2002C52.3207 55.4963 52.1177 55.7598 51.8677 55.9736C49.5061 58.3248 46.3091 59.6446 42.9765 59.6446Z" fill="#223344"/>
<path d="M56.619 43.5622C56.6927 43.4491 56.7933 43.356 56.9122 43.2915C57.0311 43.2271 57.1639 43.1934 57.2992 43.1934C57.4342 43.1934 57.5674 43.2271 57.6863 43.2915C57.8048 43.356 57.9058 43.4491 57.9795 43.5622C58.1936 43.8121 58.4568 44.0151 58.7529 44.1583C59.049 44.3015 59.3716 44.3821 59.7003 44.395C60.029 44.4075 60.3569 44.3524 60.663 44.2321C60.9695 44.1121 61.2477 43.9303 61.4805 43.6975C61.7128 43.4648 61.8951 43.1866 62.015 42.8805C62.135 42.574 62.1904 42.2464 62.1776 41.9177C62.165 41.589 62.0845 41.2664 61.9413 40.9703C61.798 40.6742 61.595 40.4107 61.3451 40.1966C60.2524 39.1522 58.7991 38.5689 57.2874 38.5689C55.7754 38.5689 54.3221 39.1522 53.2294 40.1966C52.9795 40.4107 52.7765 40.6742 52.6332 40.9703C52.49 41.2664 52.4095 41.589 52.3969 41.9177C52.384 42.2464 52.4395 42.574 52.5595 42.8805C52.6794 43.1866 52.8617 43.4648 53.094 43.6975C53.3268 43.9303 53.605 44.1121 53.9114 44.2321C54.2176 44.3524 54.5455 44.4075 54.8742 44.395C55.2029 44.3821 55.5255 44.3015 55.8216 44.1583C56.1177 44.0151 56.3812 43.8121 56.595 43.5622H56.619Z" fill="#223344"/>
<path fill-rule="evenodd" clip-rule="evenodd" d="M42.965 133.669C54.3504 133.637 65.2603 129.101 73.3112 121.05C81.3618 112.999 85.8986 102.089 85.9301 90.7038V42.965C85.9301 31.57 81.4033 20.6417 73.346 12.5842C65.2882 4.52665 54.3601 0 42.965 0C31.57 0 20.6417 4.52665 12.5842 12.5842C4.52665 20.6417 0 31.57 0 42.965V90.7038C0.0314949 102.089 4.56826 112.999 12.619 121.05C20.6697 129.101 31.5797 133.637 42.965 133.669ZM32.4386 16.3506C32.5618 16.3041 32.6944 16.2883 32.825 16.3046C32.9557 16.3208 33.0804 16.3685 33.1885 16.4437C33.2966 16.5189 33.3847 16.6192 33.4454 16.7361C33.506 16.8529 33.5373 16.9828 33.5366 17.1144C33.5429 18.8914 34.2516 20.5937 35.5081 21.8503C36.7645 23.1067 38.467 23.8154 40.2439 23.8217H45.8054C47.5823 23.8154 49.2848 23.1067 50.5412 21.8503C51.7979 20.5937 52.5065 18.8914 52.5129 17.1144C52.5122 16.9828 52.5434 16.8529 52.6039 16.7361C52.6647 16.6192 52.7528 16.5189 52.861 16.4437C52.9691 16.3685 53.0937 16.3208 53.2244 16.3046C53.3551 16.2883 53.4875 16.3041 53.6107 16.3506C59.8009 18.8126 64.9388 23.3551 68.1415 29.1964C71.3438 35.0378 72.41 41.8125 71.1565 48.3554C69.903 54.8979 66.4085 60.7991 61.2739 65.0433C56.1395 69.2876 49.6862 71.6091 43.0248 71.6091C36.3631 71.6091 29.9099 69.2876 24.7754 65.0433C19.6409 60.7991 16.1463 54.8979 14.8929 48.3554C13.6395 41.8125 14.7057 35.0378 17.9081 29.1964C21.1105 23.3551 26.2487 18.8126 32.4386 16.3506Z" fill="#223344"/>
<path d="M329.926 122.157C316.479 122.157 309.028 112.735 309.028 112.735L315.366 104.856C315.366 104.856 321.618 112.051 330.097 112.051C334.722 112.051 338.833 109.567 338.833 104.856C338.833 100.449 333.659 98.0708 327.713 95.3375C319.676 91.6432 310.227 87.2998 310.227 76.4214C310.227 66.5717 318.792 59.292 330.525 59.292C337.634 59.292 348.597 62.6322 348.597 71.2825V76.9352H338.49V74.1944C338.49 71.368 334.465 69.484 330.44 69.484C325.301 69.484 321.533 72.1389 321.533 75.9929C321.533 80.3334 326.55 82.4953 332.383 85.0084C340.476 88.4957 350.139 92.6586 350.139 104.257C350.139 113.935 342.687 122.157 329.926 122.157Z" fill="#223344"/>
<path fill-rule="evenodd" clip-rule="evenodd" d="M123.721 115.305C123.721 119.416 125.519 121.129 129.545 121.129H144.704C156.01 121.129 165.688 115.648 165.688 103.486C165.688 97.3196 162.519 91.153 155.924 89.1831V89.0116C159.607 87.1275 163.29 82.7594 163.29 75.9932C163.29 65.9726 155.41 60.3199 144.447 60.3199H118.154V69.8266H123.721V115.305ZM134.941 85.1576V69.8266H144.362C149.329 69.8266 151.899 72.9956 151.899 77.3637C151.899 81.7319 149.244 85.1576 144.533 85.1576H134.941ZM134.941 109.738V94.065H145.561C150.957 94.065 154.126 97.7478 154.126 102.801C154.126 107.94 151.043 111.623 145.561 111.623H136.825C135.626 111.623 134.941 110.937 134.941 109.738Z" fill="#223344"/>
<path fill-rule="evenodd" clip-rule="evenodd" d="M169.448 108.539C169.448 117.275 176.557 122.157 184.351 122.157C194.2 122.157 197.54 114.449 197.54 114.449H197.711C197.711 114.449 197.626 115.22 197.626 116.333C197.626 118.902 199.167 121.129 203.193 121.129H212.957V111.965H209.531C208.331 111.965 207.647 111.28 207.647 110.081V93.8076C207.647 84.0438 203.364 76.4214 188.804 76.4214C184.265 76.4214 172.788 77.2778 172.788 85.4143V90.0392H182.894V87.7266C182.894 85.3284 186.749 84.8146 188.718 84.8146C194.286 84.8146 196.769 87.1272 196.769 93.3793V93.722H195.399C188.29 93.722 169.448 94.8355 169.448 108.539ZM180.411 108.025C180.411 101.944 189.404 101.173 195.056 101.173H196.94V102.201C196.94 107.511 192.829 113.678 187.005 113.678C182.552 113.678 180.411 110.937 180.411 108.025Z" fill="#223344"/>
<path fill-rule="evenodd" clip-rule="evenodd" d="M229.021 121.129H218.744V71.4539C218.744 70.1692 218.059 69.5699 216.86 69.5699H213.434V60.3199H223.797C227.822 60.3199 229.621 62.1187 229.621 66.1438V78.8195C229.621 80.961 229.45 82.5024 229.45 82.5024H229.621C229.621 82.5024 233.475 76.4217 242.725 76.4217C254.544 76.4217 262.081 85.757 262.081 99.2895C262.081 113.164 253.602 122.157 242.04 122.157C232.961 122.157 229.021 115.99 229.021 115.99H228.85C228.85 115.99 229.021 117.189 229.021 118.903V121.129ZM240.241 85.757C234.589 85.757 229.279 89.868 229.279 99.5462C229.279 106.313 232.876 112.993 240.156 112.993C246.065 112.993 251.118 108.111 251.118 99.4607C251.118 91.153 246.665 85.757 240.241 85.757Z" fill="#223344"/>
<path d="M265.799 126.953L261.602 134.661C261.602 134.661 265.799 139.115 272.65 139.115C279.159 139.115 285.326 135.604 288.409 127.724L304.083 88.2406C304.597 86.956 305.282 86.6993 306.566 86.6993H307.851V77.4493H300.486C297.488 77.4493 295.689 78.5628 294.661 81.5603L287.21 103.4C286.439 105.627 285.754 109.224 285.754 109.224H285.583C285.583 109.224 284.898 105.627 284.041 103.4L275.476 81.5603C274.363 78.5628 272.822 77.4493 269.738 77.4493H262.544V86.6993H263.829C265.028 86.6993 265.627 86.956 266.141 88.2406L280.701 121.044L279.245 124.384C277.703 128.152 275.048 129.951 272.051 129.951C268.453 129.951 265.799 126.953 265.799 126.953Z" fill="#223344"/>
<path d="M358.003 105.113C358.003 119.759 370.079 121.558 376.158 121.558C378.131 121.558 379.499 121.301 379.499 121.301V111.794C379.499 111.794 378.729 111.965 377.53 111.965C374.533 111.965 368.879 110.937 368.879 103.743V86.0997H378.815V77.4494H368.879V65.5445H358.26V77.4494H352.35V86.0997H358.003V105.113Z" fill="#223344"/>
<path fill-rule="evenodd" clip-rule="evenodd" d="M405.393 122.157C390.917 122.157 381.923 111.708 381.923 99.2892C381.923 85.8426 391.003 76.4214 404.107 76.4214C416.61 76.4214 423.463 85.5855 423.463 97.1477C423.463 98.4324 423.205 101.173 423.205 101.173H393.058C393.914 108.881 399.567 112.907 406.163 112.907C413.187 112.907 418.411 108.025 418.411 108.025L422.951 115.562C422.951 115.562 416.27 122.157 405.393 122.157ZM404.107 84.8146C398.54 84.8146 394.601 88.1548 393.402 93.6364H412.328C412.16 88.4119 408.561 84.8146 404.107 84.8146Z" fill="#223344"/>
<path fill-rule="evenodd" clip-rule="evenodd" d="M431.397 138.258H442.189V120.187C442.189 117.96 442.017 116.418 442.017 116.418H442.189C442.189 116.418 446.045 122.157 454.695 122.157C466.17 122.157 474.735 113.164 474.735 99.2892C474.735 85.7566 467.112 76.4214 455.293 76.4214C445.1 76.4214 441.419 83.3588 441.419 83.3588H441.247V81.6456C441.247 79.2474 439.79 77.449 435.765 77.449H426.088V86.699H429.514C430.713 86.699 431.397 87.2984 431.397 88.583V138.258ZM441.931 99.5459C441.931 89.8677 447.244 85.7566 452.894 85.7566C459.317 85.7566 463.771 91.1527 463.771 99.4603C463.771 108.111 458.719 112.993 452.722 112.993C445.529 112.993 441.931 106.312 441.931 99.5459Z" fill="#223344"/>
<path d="M495.212 122.157C483.225 122.157 477.056 114.363 477.056 114.363L482.197 107.254C482.197 107.254 487.761 113.678 495.212 113.678C498.553 113.678 501.123 112.307 501.123 109.395C501.123 106.942 497.478 105.479 493.085 103.716C486.44 101.047 478.083 97.6927 478.083 89.1827C478.083 80.4465 485.964 76.4214 495.044 76.4214C500.951 76.4214 510.375 78.391 510.375 85.4999V90.0392H500.78V87.8981C500.78 85.8426 497.697 84.8146 495.298 84.8146C491.445 84.8146 488.789 86.1848 488.789 88.7545C488.789 91.5422 492.634 92.969 497.192 94.6611C503.834 97.1284 512.001 100.16 512.001 108.796C512.001 117.018 504.722 122.157 495.212 122.157Z" fill="#223344"/>
</svg>
