<?xml version="1.0" standalone="no"?>
<!DOCTYPE svg PUBLIC "-//W3C//DTD SVG 20010904//EN"
 "http://www.w3.org/TR/2001/REC-SVG-20010904/DTD/svg10.dtd">
<svg version="1.0" xmlns="http://www.w3.org/2000/svg"
 width="1280.000000pt" height="1252.000000pt" viewBox="0 0 1280.000000 1252.000000"
 preserveAspectRatio="xMidYMid meet">
<g transform="translate(0.000000,1252.000000) scale(0.100000,-0.100000)"
fill="#000000" stroke="none">
<path d="M6427 12504 c-11 -11 25 -106 132 -357 123 -285 212 -518 265 -687
74 -240 130 -530 124 -641 -3 -53 -4 -54 -33 -53 -16 1 -118 7 -225 14 -352
23 -782 4 -1145 -50 -862 -128 -1721 -488 -2420 -1016 -395 -297 -782 -684
-1079 -1079 -346 -457 -625 -991 -806 -1539 l-42 -128 -52 -21 c-82 -33 -213
-104 -305 -164 -431 -280 -731 -732 -806 -1211 -8 -54 -20 -125 -25 -158 -13
-80 -13 -186 1 -276 46 -302 86 -436 189 -643 84 -169 172 -294 304 -432 197
-207 410 -352 674 -459 l107 -43 22 -53 c12 -29 45 -109 73 -178 207 -502 514
-1001 884 -1436 135 -159 432 -456 586 -586 411 -348 833 -616 1300 -826 526
-237 1123 -395 1690 -446 91 -8 217 -20 281 -26 144 -13 324 -13 460 0 57 5
165 14 239 20 1517 126 2926 907 3850 2135 292 388 529 816 730 1321 6 15 36
31 117 58 482 165 869 499 1090 940 68 136 125 307 151 452 56 310 56 336 0
649 -48 272 -185 567 -368 790 -86 105 -263 271 -370 347 -100 71 -297 177
-415 223 -38 15 -75 32 -82 37 -6 5 -28 60 -49 121 -95 290 -267 677 -426 957
-91 162 -313 495 -422 634 -295 377 -636 717 -995 990 -594 452 -1231 760
-1946 941 -115 30 -211 59 -213 65 -6 16 29 51 153 153 216 177 457 326 890
550 301 155 385 203 385 218 0 23 -187 -2 -348 -47 -443 -123 -906 -337 -1198
-553 -47 -35 -89 -59 -93 -55 -4 5 -22 65 -40 134 -49 190 -121 373 -241 615
-145 292 -298 536 -448 713 -48 56 -96 95 -105 86z"/>
</g>
</svg>
