<svg width="20" height="20" viewBox="0 0 20 20" fill="none" xmlns="http://www.w3.org/2000/svg">
<path fill-rule="evenodd" clip-rule="evenodd" d="M0.464666 17.2917C-0.154889 17.9113 -0.154888 18.9158 0.464666 19.5353C1.08422 20.1549 2.08872 20.1549 2.70827 19.5353L9.99997 12.2436L17.2917 19.5354C17.9113 20.1549 18.9158 20.1549 19.5353 19.5354C20.1549 18.9158 20.1549 17.9113 19.5353 17.2918L12.2436 10L19.5353 2.70827C20.1549 2.08872 20.1549 1.08422 19.5353 0.464666C18.9158 -0.154888 17.9113 -0.154889 17.2917 0.464665L9.99997 7.7564L2.70829 0.464713C2.08874 -0.154841 1.08424 -0.154841 0.464685 0.464714C-0.154869 1.08427 -0.154871 2.08876 0.464684 2.70832L7.75637 10L0.464666 17.2917Z" fill="#223344"/>
</svg>
